<?xml version="1.0" encoding="UTF-8"?>
<svg width="210mm" height="297mm" viewBox="0 0 210 297">
  <!--Created using Fleckit in Julia-->
  <rect x="0.0" y="0.0" width="210" height="297" fill="white"/>
  <polyline points="35.000000, 48.500000 55.000000, 48.500000 55.000000, 68.500000 35.000000, 68.500000" fill="black"/>
  <polyline points="55.000000, 48.500000 75.000000, 48.500000 75.000000, 68.500000 55.000000, 68.500000" fill="white"/>
  <polyline points="75.000000, 48.500000 95.000000, 48.500000 95.000000, 68.500000 75.000000, 68.500000" fill="black"/>
  <polyline points="95.000000, 48.500000 115.000000, 48.500000 115.000000, 68.500000 95.000000, 68.500000" fill="white"/>
  <polyline points="115.000000, 48.500000 135.000000, 48.500000 135.000000, 68.500000 115.000000, 68.500000" fill="black"/>
  <polyline points="135.000000, 48.500000 155.000000, 48.500000 155.000000, 68.500000 135.000000, 68.500000" fill="white"/>
  <polyline points="155.000000, 48.500000 175.000000, 48.500000 175.000000, 68.500000 155.000000, 68.500000" fill="black"/>
  <polyline points="35.000000, 68.500000 55.000000, 68.500000 55.000000, 88.500000 35.000000, 88.500000" fill="white"/>
  <polyline points="55.000000, 68.500000 75.000000, 68.500000 75.000000, 88.500000 55.000000, 88.500000" fill="black"/>
  <polyline points="75.000000, 68.500000 95.000000, 68.500000 95.000000, 88.500000 75.000000, 88.500000" fill="white"/>
  <polyline points="95.000000, 68.500000 115.000000, 68.500000 115.000000, 88.500000 95.000000, 88.500000" fill="black"/>
  <polyline points="115.000000, 68.500000 135.000000, 68.500000 135.000000, 88.500000 115.000000, 88.500000" fill="white"/>
  <polyline points="135.000000, 68.500000 155.000000, 68.500000 155.000000, 88.500000 135.000000, 88.500000" fill="black"/>
  <polyline points="155.000000, 68.500000 175.000000, 68.500000 175.000000, 88.500000 155.000000, 88.500000" fill="white"/>
  <polyline points="35.000000, 88.500000 55.000000, 88.500000 55.000000, 108.500000 35.000000, 108.500000" fill="black"/>
  <polyline points="55.000000, 88.500000 75.000000, 88.500000 75.000000, 108.500000 55.000000, 108.500000" fill="white"/>
  <polyline points="75.000000, 88.500000 95.000000, 88.500000 95.000000, 108.500000 75.000000, 108.500000" fill="black"/>
  <polyline points="95.000000, 88.500000 115.000000, 88.500000 115.000000, 108.500000 95.000000, 108.500000" fill="white"/>
  <polyline points="115.000000, 88.500000 135.000000, 88.500000 135.000000, 108.500000 115.000000, 108.500000" fill="black"/>
  <polyline points="135.000000, 88.500000 155.000000, 88.500000 155.000000, 108.500000 135.000000, 108.500000" fill="white"/>
  <polyline points="155.000000, 88.500000 175.000000, 88.500000 175.000000, 108.500000 155.000000, 108.500000" fill="black"/>
  <polyline points="35.000000, 108.500000 55.000000, 108.500000 55.000000, 128.500000 35.000000, 128.500000" fill="white"/>
  <polyline points="55.000000, 108.500000 75.000000, 108.500000 75.000000, 128.500000 55.000000, 128.500000" fill="black"/>
  <polyline points="75.000000, 108.500000 95.000000, 108.500000 95.000000, 128.500000 75.000000, 128.500000" fill="white"/>
  <polyline points="95.000000, 108.500000 115.000000, 108.500000 115.000000, 128.500000 95.000000, 128.500000" fill="black"/>
  <polyline points="115.000000, 108.500000 135.000000, 108.500000 135.000000, 128.500000 115.000000, 128.500000" fill="white"/>
  <polyline points="135.000000, 108.500000 155.000000, 108.500000 155.000000, 128.500000 135.000000, 128.500000" fill="black"/>
  <polyline points="155.000000, 108.500000 175.000000, 108.500000 175.000000, 128.500000 155.000000, 128.500000" fill="white"/>
  <polyline points="35.000000, 128.500000 55.000000, 128.500000 55.000000, 148.500000 35.000000, 148.500000" fill="black"/>
  <polyline points="55.000000, 128.500000 75.000000, 128.500000 75.000000, 148.500000 55.000000, 148.500000" fill="white"/>
  <polyline points="75.000000, 128.500000 95.000000, 128.500000 95.000000, 148.500000 75.000000, 148.500000" fill="black"/>
  <polyline points="95.000000, 128.500000 115.000000, 128.500000 115.000000, 148.500000 95.000000, 148.500000" fill="white"/>
  <polyline points="115.000000, 128.500000 135.000000, 128.500000 135.000000, 148.500000 115.000000, 148.500000" fill="black"/>
  <polyline points="135.000000, 128.500000 155.000000, 128.500000 155.000000, 148.500000 135.000000, 148.500000" fill="white"/>
  <polyline points="155.000000, 128.500000 175.000000, 128.500000 175.000000, 148.500000 155.000000, 148.500000" fill="black"/>
  <polyline points="35.000000, 148.500000 55.000000, 148.500000 55.000000, 168.500000 35.000000, 168.500000" fill="white"/>
  <polyline points="55.000000, 148.500000 75.000000, 148.500000 75.000000, 168.500000 55.000000, 168.500000" fill="black"/>
  <polyline points="75.000000, 148.500000 95.000000, 148.500000 95.000000, 168.500000 75.000000, 168.500000" fill="white"/>
  <polyline points="95.000000, 148.500000 115.000000, 148.500000 115.000000, 168.500000 95.000000, 168.500000" fill="black"/>
  <polyline points="115.000000, 148.500000 135.000000, 148.500000 135.000000, 168.500000 115.000000, 168.500000" fill="white"/>
  <polyline points="135.000000, 148.500000 155.000000, 148.500000 155.000000, 168.500000 135.000000, 168.500000" fill="black"/>
  <polyline points="155.000000, 148.500000 175.000000, 148.500000 175.000000, 168.500000 155.000000, 168.500000" fill="white"/>
  <polyline points="35.000000, 168.500000 55.000000, 168.500000 55.000000, 188.500000 35.000000, 188.500000" fill="black"/>
  <polyline points="55.000000, 168.500000 75.000000, 168.500000 75.000000, 188.500000 55.000000, 188.500000" fill="white"/>
  <polyline points="75.000000, 168.500000 95.000000, 168.500000 95.000000, 188.500000 75.000000, 188.500000" fill="black"/>
  <polyline points="95.000000, 168.500000 115.000000, 168.500000 115.000000, 188.500000 95.000000, 188.500000" fill="white"/>
  <polyline points="115.000000, 168.500000 135.000000, 168.500000 135.000000, 188.500000 115.000000, 188.500000" fill="black"/>
  <polyline points="135.000000, 168.500000 155.000000, 168.500000 155.000000, 188.500000 135.000000, 188.500000" fill="white"/>
  <polyline points="155.000000, 168.500000 175.000000, 168.500000 175.000000, 188.500000 155.000000, 188.500000" fill="black"/>
  <polyline points="35.000000, 188.500000 55.000000, 188.500000 55.000000, 208.500000 35.000000, 208.500000" fill="white"/>
  <polyline points="55.000000, 188.500000 75.000000, 188.500000 75.000000, 208.500000 55.000000, 208.500000" fill="black"/>
  <polyline points="75.000000, 188.500000 95.000000, 188.500000 95.000000, 208.500000 75.000000, 208.500000" fill="white"/>
  <polyline points="95.000000, 188.500000 115.000000, 188.500000 115.000000, 208.500000 95.000000, 208.500000" fill="black"/>
  <polyline points="115.000000, 188.500000 135.000000, 188.500000 135.000000, 208.500000 115.000000, 208.500000" fill="white"/>
  <polyline points="135.000000, 188.500000 155.000000, 188.500000 155.000000, 208.500000 135.000000, 208.500000" fill="black"/>
  <polyline points="155.000000, 188.500000 175.000000, 188.500000 175.000000, 208.500000 155.000000, 208.500000" fill="white"/>
  <polyline points="35.000000, 208.500000 55.000000, 208.500000 55.000000, 228.500000 35.000000, 228.500000" fill="black"/>
  <polyline points="55.000000, 208.500000 75.000000, 208.500000 75.000000, 228.500000 55.000000, 228.500000" fill="white"/>
  <polyline points="75.000000, 208.500000 95.000000, 208.500000 95.000000, 228.500000 75.000000, 228.500000" fill="black"/>
  <polyline points="95.000000, 208.500000 115.000000, 208.500000 115.000000, 228.500000 95.000000, 228.500000" fill="white"/>
  <polyline points="115.000000, 208.500000 135.000000, 208.500000 135.000000, 228.500000 115.000000, 228.500000" fill="black"/>
  <polyline points="135.000000, 208.500000 155.000000, 208.500000 155.000000, 228.500000 135.000000, 228.500000" fill="white"/>
  <polyline points="155.000000, 208.500000 175.000000, 208.500000 175.000000, 228.500000 155.000000, 228.500000" fill="black"/>
  <polyline points="35.000000, 228.500000 55.000000, 228.500000 55.000000, 248.500000 35.000000, 248.500000" fill="white"/>
  <polyline points="55.000000, 228.500000 75.000000, 228.500000 75.000000, 248.500000 55.000000, 248.500000" fill="black"/>
  <polyline points="75.000000, 228.500000 95.000000, 228.500000 95.000000, 248.500000 75.000000, 248.500000" fill="white"/>
  <polyline points="95.000000, 228.500000 115.000000, 228.500000 115.000000, 248.500000 95.000000, 248.500000" fill="black"/>
  <polyline points="115.000000, 228.500000 135.000000, 228.500000 135.000000, 248.500000 115.000000, 248.500000" fill="white"/>
  <polyline points="135.000000, 228.500000 155.000000, 228.500000 155.000000, 248.500000 135.000000, 248.500000" fill="black"/>
  <polyline points="155.000000, 228.500000 175.000000, 228.500000 175.000000, 248.500000 155.000000, 248.500000" fill="white"/>
</svg>
