<?xml version="1.0" encoding="UTF-8"?>
<svg width="36mm" height="33mm" viewBox="0 0 36 33">
  <!--Created using Fleckit in Julia-->
  <polyline points="1.068660, 2.776994 0.663770, 1.699178 1.931340, 1.223006 2.336230, 2.300822 1.068660, 2.776994" fill="rgb(98.19799435542247,98.19799435542247,98.19799435542247)"/>
  <polyline points="3.246364, 2.743470 2.834518, 2.359867 2.812502, 1.765459 3.193213, 1.308442 3.753636, 1.256530 4.165482, 1.640133 4.187498, 2.234541 3.806787, 2.691558 3.246364, 2.743470" fill="rgb(0.17216043540213694,0.17216043540213694,0.17216043540213694)"/>
  <polyline points="5.880152, 2.334297 5.398334, 2.593574 4.993073, 2.405878 4.969538, 1.912547 5.345452, 1.485070 5.837744, 1.445346 6.075708, 1.823287 5.880152, 2.334297" fill="rgb(69.6212104352433,69.6212104352433,69.6212104352433)"/>
  <polyline points="6.981444, 2.537404 6.642104, 1.819233 6.948778, 1.237184 7.670533, 1.229551 8.263873, 1.802081 8.282001, 2.523649 7.711267, 2.850898 6.981444, 2.537404" fill="rgb(110.75851779799797,110.75851779799797,110.75851779799797)"/>
  <polyline points="9.126008, 1.398849 9.328072, 1.299335 9.540940, 1.243847 9.751235, 1.235870 9.945744, 1.275906 10.112246, 1.361440 10.240277, 1.487097 10.321795, 1.644982 10.351676, 1.825173 10.328043, 2.016350 10.252381, 2.206499 10.129444, 2.383673 9.966957, 2.536740 9.775129, 2.656081 9.566014, 2.734198 9.352751, 2.766183 9.148741, 2.750026 8.966801, 2.686742 8.818364, 2.580307 8.712756, 2.437410 8.656614, 2.267028 8.653466, 2.079868 8.703508, 1.887690 8.803596, 1.702568 8.947442, 1.536136 9.126008, 1.398849" fill="rgb(44.30795673549762,44.30795673549762,44.30795673549762)"/>
  <polyline points="11.215285, 1.582100 11.882084, 1.307024 12.325063, 1.437884 12.284732, 1.898024 11.784715, 2.417900 11.117916, 2.692976 10.674937, 2.562116 10.715268, 2.101976 11.215285, 1.582100" fill="rgb(54.507872082646365,54.507872082646365,54.507872082646365)"/>
  <polyline points="14.046331, 1.891408 13.959455, 2.291186 13.603436, 2.520391 13.186826, 2.444758 12.953669, 2.108592 13.040545, 1.708814 13.396564, 1.479609 13.813174, 1.555242 14.046331, 1.891408" fill="rgb(34.706886753909785,34.706886753909785,34.706886753909785)"/>
  <polyline points="14.749488, 1.803431 15.144955, 1.446417 15.807777, 1.506263 16.238838, 1.937903 16.113538, 2.416303 15.526232, 2.581218 14.919173, 2.308465 14.749488, 1.803431" fill="rgb(98.8538498082705,98.8538498082705,98.8538498082705)"/>
  <polyline points="16.908609, 1.319629 17.656395, 1.119351 18.286412, 1.582219 18.324245, 2.359685 17.741404, 2.866300 16.976782, 2.720574 16.606153, 2.032241 16.908609, 1.319629" fill="rgb(15.16422647408919,15.16422647408919,15.16422647408919)"/>
  <polyline points="19.362475, 2.587752 18.902321, 2.170118 19.039846, 1.582366 19.637525, 1.412248 20.097679, 1.829882 19.960154, 2.417634 19.362475, 2.587752" fill="rgb(117.16181281932369,117.16181281932369,117.16181281932369)"/>
  <polyline points="21.875252, 1.405595 22.044649, 1.538654 22.179824, 1.700701 22.272283, 1.881553 22.316217, 2.069849 22.308864, 2.253755 22.250688, 2.421717 22.145343, 2.563181 21.999449, 2.669258 21.822173, 2.733283 21.624654, 2.751234 21.419302, 2.721981 21.219020, 2.647364 21.036394, 2.532071 20.882897, 2.383345 20.768176, 2.210533 20.699438, 2.024492 20.681001, 1.836912 20.714026, 1.659580 20.796436, 1.503637 20.923054, 1.378883 21.085924, 1.293156 21.274811, 1.251842 21.477848, 1.257538 21.682276, 1.309885 21.875252, 1.405595" fill="rgb(9.297155999706591,9.297155999706591,9.297155999706591)"/>
  <polyline points="23.292610, 2.647430 23.123620, 2.570870 22.978280, 2.458441 22.865721, 2.317206 22.793016, 2.156040 22.764733, 1.985069 22.782650, 1.815037 22.845641, 1.656626 22.949748, 1.519791 23.088429, 1.413129 23.252970, 1.343342 23.433033, 1.314816 23.617304, 1.329342 23.794205, 1.386008 23.952619, 1.481254 24.082594, 1.609094 24.175962, 1.761496 24.226857, 1.928885 24.232081, 2.100741 24.191305, 2.266268 24.107093, 2.415064 23.984734, 2.537781 23.831918, 2.626706 23.658246, 2.676253 23.474631, 2.683309 23.292610, 2.647430" fill="rgb(40.02612454149539,40.02612454149539,40.02612454149539)"/>
  <polyline points="24.712157, 1.903928 25.890832, 1.309220 26.287843, 2.096072 25.109168, 2.690780 24.712157, 1.903928" fill="rgb(62.5325856460524,62.5325856460524,62.5325856460524)"/>
  <polyline points="26.725506, 2.477615 26.670671, 1.521932 27.445165, 1.044318 28.274494, 1.522385 28.329329, 2.478068 27.554835, 2.955682 26.725506, 2.477615" fill="rgb(124.87493602945749,124.87493602945749,124.87493602945749)"/>
  <polyline points="30.309601, 2.289666 30.231666, 2.427300 30.107758, 2.538085 29.945662, 2.615060 29.755563, 2.653388 29.549407, 2.650662 29.340146, 2.607052 29.140930, 2.525299 28.964275, 2.410540 28.821281, 2.269985 28.720934, 2.112465 28.669539, 1.947879 28.670325, 1.786568 28.723242, 1.638668 28.824965, 1.513471 28.969104, 1.418845 29.146601, 1.360735 29.346303, 1.342792 29.555662, 1.366145 29.761524, 1.429324 29.950954, 1.528361 30.112048, 1.657033 30.234685, 1.807255 30.311159, 1.969588 30.336665, 2.133832 30.309601, 2.289666" fill="rgb(46.31405476518912,46.31405476518912,46.31405476518912)"/>
  <polyline points="32.292768, 2.401324 31.809875, 2.614498 31.093639, 2.364942 30.683402, 1.840577 30.888079, 1.436261 31.553546, 1.456452 32.178691, 1.885946 32.292768, 2.401324" fill="rgb(79.93452704671564,79.93452704671564,79.93452704671564)"/>
  <polyline points="33.019082, 2.349406 32.938014, 1.857047 33.280133, 1.472334 33.787816, 1.484965 34.078768, 1.885427 33.933896, 2.372166 33.462291, 2.578656 33.019082, 2.349406" fill="rgb(41.050905118246206,41.050905118246206,41.050905118246206)"/>
  <polyline points="2.241904, 3.215237 3.180171, 3.192841 3.178464, 3.915615 2.239143, 4.384710 1.660317, 3.951852 2.241904, 3.215237" fill="rgb(70.78995531255553,70.78995531255553,70.78995531255553)"/>
  <polyline points="4.884521, 4.080091 4.342111, 4.452988 3.892191, 4.403570 3.798316, 3.960785 4.115479, 3.384010 4.657889, 3.011114 5.107809, 3.060532 5.201684, 3.503317 4.884521, 4.080091" fill="rgb(105.2609298733875,105.2609298733875,105.2609298733875)"/>
  <polyline points="6.259239, 3.224097 7.024031, 3.095814 7.394217, 3.446631 7.091040, 4.012374 6.342797, 4.367028 5.712932, 4.243532 5.675745, 3.734879 6.259239, 3.224097" fill="rgb(31.718948148093553,31.718948148093553,31.718948148093553)"/>
  <polyline points="8.119609, 3.293055 8.644740, 3.222330 9.025131, 3.661326 8.880391, 4.171046 8.355260, 4.241771 7.974869, 3.802776 8.119609, 3.293055" fill="rgb(66.05356006287447,66.05356006287447,66.05356006287447)"/>
  <polyline points="10.780740, 2.809864 11.356748, 3.489044 11.076008, 4.411230 10.219260, 4.654237 9.643252, 3.975058 9.923992, 3.052872 10.780740, 2.809864" fill="rgb(13.938457347409853,13.938457347409853,13.938457347409853)"/>
  <polyline points="12.488043, 3.075242 13.331048, 3.388409 13.343005, 4.045217 12.511957, 4.388859 11.668952, 4.075693 11.656995, 3.418884 12.488043, 3.075242" fill="rgb(39.12024596306806,39.12024596306806,39.12024596306806)"/>
  <polyline points="15.057703, 3.924574 14.970160, 4.121366 14.853075, 4.293696 14.713805, 4.430735 14.561100, 4.523874 14.404557, 4.567260 14.254010, 4.558166 14.118921, 4.497164 14.007775, 4.388088 13.927558, 4.237790 13.883310, 4.055715 13.877810, 3.853303 13.911405, 3.643272 13.981984, 3.438819 14.085111, 3.252792 14.214308, 3.096877 14.361455, 2.980874 14.517308, 2.912069 14.672073, 2.894787 14.816026, 2.930113 14.940123, 3.015828 15.036564, 3.146546 15.099292, 3.314053 15.124363, 3.507825 15.110204, 3.715685 15.057703, 3.924574" fill="rgb(57,152,38)"/>
  <polyline points="17.214581, 4.093470 17.126533, 4.211814 16.999117, 4.300012 16.840340, 4.352523 16.660178, 4.366048 16.469952, 4.339736 16.281613, 4.275241 16.106997, 4.176616 15.957074, 4.050057 15.841266, 3.903516 15.766848, 3.746202 15.738497, 3.587998 15.757994, 3.438846 15.824113, 3.308117 15.932702, 3.204025 16.076935, 3.133111 16.247752, 3.099831 16.434418, 3.106275 16.625205, 3.152039 16.808125, 3.234248 16.971684, 3.347735 17.105605, 3.485370 17.201474, 3.638505 17.253267, 3.797518 17.257730, 3.952417 17.214581, 4.093470" fill="rgb(57,152,38)"/>
  <polyline points="18.613839, 4.599662 17.675308, 4.024611 18.386161, 2.864440 19.324692, 3.439491 18.613839, 4.599662" fill="rgb(57,152,38)"/>
  <polyline points="19.549480, 4.008521 19.955726, 2.956088 21.114140, 2.976010 21.423833, 4.040754 20.456820, 4.678881 19.549480, 4.008521" fill="rgb(57,152,38)"/>
  <polyline points="23.000839, 4.353133 22.092386, 4.417932 21.999161, 3.110969 22.907614, 3.046170 23.000839, 4.353133" fill="rgb(4.631459073910239,4.631459073910239,4.631459073910239)"/>
  <polyline points="24.480298, 4.663089 24.302007, 4.630052 24.136157, 4.540591 23.993168, 4.400327 23.882025, 4.218072 23.809712, 4.005279 23.780772, 3.775318 23.797024, 3.542638 23.857447, 3.321859 23.958243, 3.126855 24.093080, 2.969877 24.253486, 2.860790 24.429381, 2.806447 24.609713, 2.810263 24.783151, 2.871998 24.938798, 2.987774 25.066874, 3.150315 25.159331, 3.349409 25.210359, 3.572546 25.216754, 3.805705 25.178112, 4.034236 25.096861, 4.243780 24.978108, 4.421169 24.829314, 4.555259 24.659827, 4.637624 24.480298, 4.663089" fill="rgb(46.06769289732411,46.06769289732411,46.06769289732411)"/>
  <polyline points="26.136381, 2.813152 27.009734, 2.998949 27.373353, 3.917848 26.863619, 4.650949 25.990266, 4.465152 25.626647, 3.546254 26.136381, 2.813152" fill="rgb(116.6290474445143,116.6290474445143,116.6290474445143)"/>
  <polyline points="27.580059, 3.540714 28.404109, 2.767165 29.360678, 3.327055 29.127819, 4.446635 28.027336, 4.578684 27.580059, 3.540714" fill="rgb(110.5789067703255,110.5789067703255,110.5789067703255)"/>
  <polyline points="29.854801, 3.343207 29.999122, 3.149589 30.174915, 2.992570 30.371134, 2.882014 30.575450, 2.824870 30.775025, 2.824727 30.957320, 2.881595 31.110879, 2.991900 31.226055, 3.148711 31.295610, 3.342176 31.315174, 3.560138 31.283517, 3.788902 31.202629, 4.014093 31.077593, 4.221563 30.916264, 4.398275 30.728780, 4.533126 30.526921, 4.617643 30.323370, 4.646514 30.130917, 4.617926 29.961656, 4.533675 29.826220, 4.399056 29.733121, 4.222526 29.688207, 4.015178 29.694302, 3.790039 29.751021, 3.561257 29.854801, 3.343207" fill="rgb(75.22076983359004,75.22076983359004,75.22076983359004)"/>
  <polyline points="31.986939, 3.302703 32.883325, 3.183751 33.013061, 4.161398 32.116675, 4.280350 31.986939, 3.302703" fill="rgb(84.05721809637119,84.05721809637119,84.05721809637119)"/>
  <polyline points="33.705938, 3.846981 33.921420, 3.226869 34.572585, 2.987169 35.169092, 3.308380 35.261759, 3.948624 34.780806, 4.425784 34.088401, 4.380549 33.705938, 3.846981" fill="rgb(48.75471313849814,48.75471313849814,48.75471313849814)"/>
  <polyline points="1.360768, 4.522060 2.007621, 4.788892 2.272224, 5.564172 1.955327, 6.264096 1.295560, 6.361608 0.789740, 5.783280 0.818760, 4.964603 1.360768, 4.522060" fill="rgb(117.66656678889457,117.66656678889457,117.66656678889457)"/>
  <polyline points="3.801865, 5.028592 3.963720, 5.161034 4.096439, 5.312520 4.191681, 5.473530 4.243462, 5.633947 4.248529, 5.783693 4.206563, 5.913357 4.120201, 6.014793 3.994870, 6.081627 3.838444, 6.109660 3.660752, 6.097130 3.472960, 6.044824 3.286866, 5.956030 3.114165, 5.836325 2.965707, 5.693233 2.850821, 5.535743 2.776725, 5.373752 2.748075, 5.217438 2.766671, 5.076623 2.831345, 4.960154 2.938033, 4.875350 3.080032, 4.827540 3.248418, 4.819727 3.432613, 4.852403 3.621041, 4.923514 3.801865, 5.028592" fill="rgb(111.0176045494733,111.0176045494733,111.0176045494733)"/>
  <polyline points="5.661881, 5.939995 5.135404, 5.853603 4.973524, 5.377709 5.338119, 4.988208 5.864596, 5.074601 6.026476, 5.550494 5.661881, 5.939995" fill="rgb(16.76354026430211,16.76354026430211,16.76354026430211)"/>
  <polyline points="7.053877, 5.749433 7.005091, 5.303100 7.328982, 4.978004 7.781652, 5.018950 8.022233, 5.395104 7.869562, 5.823215 7.438603, 5.980906 7.053877, 5.749433" fill="rgb(56.90501496511152,56.90501496511152,56.90501496511152)"/>
  <polyline points="9.999401, 5.092656 10.156806, 5.696939 9.819624, 6.125891 9.241758, 6.056502 8.858354, 5.541023 8.958122, 4.967621 9.465936, 4.768079 9.999401, 5.092656" fill="rgb(49.62975707321041,49.62975707321041,49.62975707321041)"/>
  <polyline points="10.637829, 5.045399 11.063120, 4.812282 11.744329, 4.960991 12.282414, 5.404416 12.362171, 5.882804 11.936880, 6.115922 11.255671, 5.967212 10.717586, 5.523787 10.637829, 5.045399" fill="rgb(3.0808731911302196,3.0808731911302196,3.0808731911302196)"/>
  <polyline points="13.004570, 5.904418 12.822069, 5.200194 13.317499, 4.759878 13.995430, 5.023785 14.177931, 5.728009 13.682501, 6.168325 13.004570, 5.904418" fill="rgb(57,152,38)"/>
  <polyline points="15.173567, 5.008873 15.715264, 4.879967 16.094862, 5.190926 16.026517, 5.707592 15.561694, 6.040905 15.050414, 5.939873 14.877681, 5.480576 15.173567, 5.008873" fill="rgb(57,152,38)"/>
  <polyline points="17.813162, 4.725038 18.165185, 5.202426 18.016309, 5.876861 17.478643, 6.240480 16.957059, 6.019470 16.844320, 5.380256 17.225322, 4.804180 17.813162, 4.725038" fill="rgb(57,152,38)"/>
  <polyline points="19.940966, 6.181992 19.077547, 6.217972 18.636581, 5.500082 19.059034, 4.746211 19.922453, 4.710231 20.363419, 5.428121 19.940966, 6.181992" fill="rgb(57,152,38)"/>
  <polyline points="21.620826, 4.939571 22.162644, 5.446053 21.788711, 5.977477 21.015789, 5.799434 20.912031, 5.157973 21.620826, 4.939571" fill="rgb(57,152,38)"/>
  <polyline points="22.741207, 5.565445 23.465288, 4.699358 24.258793, 5.362758 23.534712, 6.228845 22.741207, 5.565445" fill="rgb(57,152,38)"/>
  <polyline points="24.672292, 5.234527 25.088366, 4.675713 25.745569, 4.578726 26.258921, 5.000380 26.327708, 5.693676 25.911634, 6.252490 25.254431, 6.349478 24.741079, 5.927823 24.672292, 5.234527" fill="rgb(98.9507527970668,98.9507527970668,98.9507527970668)"/>
  <polyline points="27.001890, 5.077487 27.703183, 4.867192 27.998110, 5.850716 27.296817, 6.061012 27.001890, 5.077487" fill="rgb(72.60981812923963,72.60981812923963,72.60981812923963)"/>
  <polyline points="29.616577, 4.956958 30.040867, 5.255524 30.057874, 5.711153 29.654790, 5.980747 29.135146, 5.861297 28.890245, 5.442751 29.104501, 5.040282 29.616577, 4.956958" fill="rgb(76.25561792814716,76.25561792814716,76.25561792814716)"/>
  <polyline points="31.392138, 6.011247 30.921228, 5.751931 30.789354, 5.324009 31.073767, 4.978150 31.607862, 4.916956 32.078772, 5.176272 32.210646, 5.604195 31.926233, 5.950053 31.392138, 6.011247" fill="rgb(72.26047585670796,72.26047585670796,72.26047585670796)"/>
  <polyline points="33.012766, 5.036830 33.539916, 4.805766 34.037009, 5.070442 34.129723, 5.631552 33.748243, 6.066568 33.179831, 6.047915 32.852513, 5.589638 33.012766, 5.036830" fill="rgb(62.1404758815399,62.1404758815399,62.1404758815399)"/>
  <polyline points="3.049702, 6.559844 3.239533, 7.596342 1.950298, 7.832461 1.760467, 6.795963 3.049702, 6.559844" fill="rgb(123.9346741231788,123.9346741231788,123.9346741231788)"/>
  <polyline points="4.138414, 6.500185 4.824405, 6.754492 5.062079, 7.619159 4.522979, 7.899245 3.952122, 7.207681 4.138414, 6.500185" fill="rgb(81.92802835448761,81.92802835448761,81.92802835448761)"/>
  <polyline points="6.925724, 7.780519 6.727351, 7.896936 6.514693, 7.969319 6.301112, 7.993121 6.100027, 7.966847 5.924075, 7.892148 5.784309, 7.773716 5.689513, 7.618994 5.645644, 7.437703 5.655456, 7.241235 5.718334, 7.041934 5.830327, 6.852323 5.984399, 6.684316 6.170867, 6.548470 6.378016, 6.453320 6.592829, 6.404845 6.801810, 6.406091 6.991827, 6.456979 7.150941, 6.554312 7.269154, 6.691974 7.339038, 6.861316 7.356202, 7.051697 7.319567, 7.251154 7.231437, 7.447155 7.097347, 7.627385 6.925724, 7.780519" fill="rgb(97.51536552634569,97.51536552634569,97.51536552634569)"/>
  <polyline points="7.884181, 7.260459 7.885227, 7.083184 7.924902, 6.913008 8.000712, 6.760622 8.107894, 6.635602 8.239714, 6.545804 8.387888, 6.496869 8.543107, 6.491873 8.695617, 6.531130 8.835836, 6.612172 8.954953, 6.729908 9.045484, 6.876940 9.101740, 7.044029 9.120186, 7.220677 9.099664, 7.395783 9.041463, 7.558346 8.949239, 7.698151 8.828788, 7.806414 8.687679, 7.876332 8.534777, 7.903511 8.379689, 7.886245 8.232161, 7.825617 8.101463, 7.725438 7.995806, 7.592002 7.921829, 7.433693 7.884181, 7.260459" fill="rgb(35.05359090036814,35.05359090036814,35.05359090036814)"/>
  <polyline points="10.662650, 8.006882 10.153368, 7.862041 9.847138, 7.327131 9.923346, 6.715495 10.337350, 6.385422 10.846632, 6.530264 11.152862, 7.065174 11.076654, 7.676809 10.662650, 8.006882" fill="rgb(104.83354944102737,104.83354944102737,104.83354944102737)"/>
  <polyline points="12.131262, 7.577472 11.889869, 7.066220 12.107917, 6.652810 12.621211, 6.648548 13.043231, 7.056644 13.056187, 7.569792 12.650323, 7.801582 12.131262, 7.577472" fill="rgb(57,152,38)"/>
  <polyline points="14.411266, 6.598248 15.045338, 6.926387 14.925772, 7.627333 14.217804, 7.732402 13.899821, 7.096392 14.411266, 6.598248" fill="rgb(57,152,38)"/>
  <polyline points="16.031096, 6.568470 17.102283, 6.695043 16.968904, 7.823835 15.897717, 7.697262 16.031096, 6.568470" fill="rgb(57,152,38)"/>
  <polyline points="18.015706, 6.941972 18.452425, 6.553005 18.924969, 6.648341 19.077503, 7.156191 18.795165, 7.694132 18.290562, 7.857085 17.943670, 7.522342 18.015706, 6.941972" fill="rgb(57,152,38)"/>
  <polyline points="20.312029, 7.679218 20.123787, 7.588495 19.959185, 7.473119 19.828564, 7.340341 19.740131, 7.198503 19.699444, 7.056517 19.709059, 6.923305 19.768371, 6.807237 19.873655, 6.715606 20.018294, 6.654169 20.193200, 6.626788 20.387384, 6.635181 20.588644, 6.678823 20.784334, 6.754970 20.962158, 6.858838 21.110943, 6.983901 21.221341, 7.122301 21.286413, 7.265340 21.302073, 7.404033 21.267335, 7.529664 21.184383, 7.634339 21.058429, 7.711481 20.897386, 7.756243 20.711375, 7.765812 20.512081, 7.739588 20.312029, 7.679218" fill="rgb(57,152,38)"/>
  <polyline points="21.724823, 7.232601 22.226818, 6.491986 23.106341, 6.724505 23.147921, 7.608825 22.294096, 7.922845 21.724823, 7.232601" fill="rgb(57,152,38)"/>
  <polyline points="25.219158, 7.455433 25.143127, 7.595504 25.026686, 7.710483 24.877151, 7.793145 24.703919, 7.838295 24.517873, 7.843097 24.330705, 7.807249 24.154174, 7.733004 23.999373, 7.625026 23.876027, 7.490101 23.791889, 7.336706 23.752243, 7.174479 23.759582, 7.013614 23.813444, 6.864219 23.910445, 6.735680 24.044490, 6.636075 24.207156, 6.571661 24.388223, 6.546486 24.576313, 6.562132 24.759608, 6.617616 24.926590, 6.709452 25.066769, 6.831869 25.171336, 6.977175 25.233720, 7.136240 25.250001, 7.299070 25.219158, 7.455433" fill="rgb(57,152,38)"/>
  <polyline points="25.745176, 7.045655 25.797746, 6.905658 25.894440, 6.783915 26.029185, 6.688073 26.193512, 6.624156 26.377097, 6.596180 26.568405, 6.605902 26.755414, 6.652712 26.926375, 6.733668 27.070545, 6.843684 27.178866, 6.975846 27.244531, 7.121852 27.263414, 7.272526 27.234329, 7.418401 27.159104, 7.550311 27.042465, 7.659968 26.891741, 7.740482 26.716402, 7.786794 26.527466, 7.795994 26.336804, 7.767503 26.156396, 7.703112 25.997578, 7.606867 25.870330, 7.484816 25.782645, 7.344627 25.740035, 7.195108 25.745176, 7.045655" fill="rgb(83.86845537397643,83.86845537397643,83.86845537397643)"/>
  <polyline points="29.152771, 6.928053 29.227740, 7.654629 28.876408, 8.112636 28.304582, 8.033779 27.847229, 7.464252 27.772260, 6.737676 28.123592, 6.279669 28.695418, 6.358526 29.152771, 6.928053" fill="rgb(107.92804268397681,107.92804268397681,107.92804268397681)"/>
  <polyline points="31.409458, 6.915376 31.306031, 7.525413 30.730443, 7.942574 30.019864, 7.922492 29.590542, 7.476929 29.693969, 6.866891 30.269557, 6.449730 30.980136, 6.469813 31.409458, 6.915376" fill="rgb(79.41840586851075,79.41840586851075,79.41840586851075)"/>
  <polyline points="32.755002, 7.867927 32.190768, 7.792732 31.859392, 7.268300 32.010407, 6.689539 32.530095, 6.492269 33.027121, 6.825036 33.127214, 7.437262 32.755002, 7.867927" fill="rgb(65.01153557670149,65.01153557670149,65.01153557670149)"/>
  <polyline points="34.509746, 7.773830 33.884596, 7.495456 33.874850, 6.917778 34.490254, 6.618474 35.115404, 6.896849 35.125150, 7.474527 34.509746, 7.773830" fill="rgb(57.25691160421193,57.25691160421193,57.25691160421193)"/>
  <polyline points="0.884426, 8.896137 1.340934, 8.320174 2.017266, 8.584487 1.978754, 9.323804 1.278620, 9.516415 0.884426, 8.896137" fill="rgb(84.54285511287893,84.54285511287893,84.54285511287893)"/>
  <polyline points="3.608188, 8.430113 3.979094, 8.663446 4.069353, 9.051870 3.826093, 9.367852 3.391812, 9.426294 3.020906, 9.192961 2.930647, 8.804537 3.173907, 8.488554 3.608188, 8.430113" fill="rgb(69.12741667071167,69.12741667071167,69.12741667071167)"/>
  <polyline points="5.643514, 8.095957 6.257504, 9.301590 5.356486, 9.760450 4.742496, 8.554816 5.643514, 8.095957" fill="rgb(125.12442948861462,125.12442948861462,125.12442948861462)"/>
  <polyline points="8.231602, 8.661841 7.888941, 9.293221 7.008777, 9.420159 6.807466, 8.867231 7.563214, 8.398565 8.231602, 8.661841" fill="rgb(29.161384659381536,29.161384659381536,29.161384659381536)"/>
  <polyline points="8.830691, 9.544396 8.607564, 8.630437 9.276873, 8.014245 10.169309, 8.312011 10.392436, 9.225969 9.723127, 9.842162 8.830691, 9.544396" fill="rgb(70.87856654121627,70.87856654121627,70.87856654121627)"/>
  <polyline points="11.196289, 9.628764 10.825589, 9.154714 10.962734, 8.510097 11.504451, 8.180322 12.042817, 8.413717 12.172430, 9.034530 11.795690, 9.575278 11.196289, 9.628764" fill="rgb(57,152,38)"/>
  <polyline points="12.745282, 9.253536 13.240238, 8.148483 14.254718, 8.602871 13.759762, 9.707924 12.745282, 9.253536" fill="rgb(57,152,38)"/>
  <polyline points="15.332427, 9.863513 14.798048, 9.485033 14.674863, 8.780369 15.035032, 8.162305 15.667573, 7.992893 16.201952, 8.371374 16.325137, 9.076037 15.964968, 9.694101 15.332427, 9.863513" fill="rgb(57,152,38)"/>
  <polyline points="16.922752, 9.425422 16.905444, 8.451817 18.077248, 8.430985 18.094556, 9.404590 16.922752, 9.425422" fill="rgb(57,152,38)"/>
  <polyline points="19.628591, 9.568051 18.762468, 9.409272 18.633877, 8.769424 19.371409, 8.288355 20.237532, 8.447135 20.366123, 9.086982 19.628591, 9.568051" fill="rgb(57,152,38)"/>
  <polyline points="21.355099, 9.521870 20.973100, 9.191795 20.987868, 8.663230 21.388281, 8.334195 21.872821, 8.452461 22.076619, 8.928970 21.846211, 9.404902 21.355099, 9.521870" fill="rgb(57,152,38)"/>
  <polyline points="24.051024, 9.262907 23.614484, 9.617852 23.110881, 9.568810 22.835219, 9.144509 22.948976, 8.593499 23.385516, 8.238554 23.889119, 8.287597 24.164781, 8.711898 24.051024, 9.262907" fill="rgb(57,152,38)"/>
  <polyline points="24.683771, 8.978896 24.963227, 8.511178 25.646883, 8.357489 26.219934, 8.633559 26.250859, 9.131502 25.716373, 9.476357 25.018953, 9.408441 24.683771, 8.978896" fill="rgb(58.20694471008821,58.20694471008821,58.20694471008821)"/>
  <polyline points="28.376871, 9.408107 27.811355, 9.831574 27.063451, 9.725859 26.571271, 9.152888 26.623129, 8.448300 27.188645, 8.024833 27.936549, 8.130548 28.428729, 8.703519 28.376871, 9.408107" fill="rgb(109.49212872618341,109.49212872618341,109.49212872618341)"/>
  <polyline points="30.025878, 9.752723 29.366476, 9.736565 28.807621, 9.111694 28.770141, 8.348651 29.282260, 8.022022 29.958342, 8.377766 30.289283, 9.148001 30.025878, 9.752723" fill="rgb(66.37977555069835,66.37977555069835,66.37977555069835)"/>
  <polyline points="31.228378, 9.786318 30.606410, 8.937093 31.219353, 8.075582 32.220141, 8.392365 32.225718, 9.449658 31.228378, 9.786318" fill="rgb(113.1947945647205,113.1947945647205,113.1947945647205)"/>
  <polyline points="33.884101, 8.452860 34.270325, 9.060779 34.076479, 9.568865 33.448532, 9.594520 32.859342, 9.118425 32.752580, 8.499089 33.208640, 8.202884 33.884101, 8.452860" fill="rgb(62.957716692941915,62.957716692941915,62.957716692941915)"/>
  <polyline points="2.996599, 10.778838 2.691467, 11.229005 2.242156, 11.250892 1.987007, 10.828016 2.118152, 10.278812 2.536837, 10.016842 2.927782, 10.239374 2.996599, 10.778838" fill="rgb(46.988520473903506,46.988520473903506,46.988520473903506)"/>
  <polyline points="5.330073, 10.254167 5.236377, 10.854378 4.588174, 11.308410 3.873574, 11.274367 3.630685, 10.777885 4.042408, 10.192824 4.798707, 9.959747 5.330073, 10.254167" fill="rgb(41.844630530881425,41.844630530881425,41.844630530881425)"/>
  <polyline points="5.823824, 10.812553 6.084236, 9.789102 6.919220, 9.969554 7.174856, 11.104530 6.497865, 11.625532 5.823824, 10.812553" fill="rgb(5.014872901094006,5.014872901094006,5.014872901094006)"/>
  <polyline points="8.633620, 11.417172 7.955947, 10.997486 8.030137, 10.111757 8.753662, 9.984032 9.126635, 10.790823 8.633620, 11.417172" fill="rgb(86.04691859617435,86.04691859617435,86.04691859617435)"/>
  <polyline points="10.824368, 11.549113 9.853950, 11.207266 9.776351, 10.109467 10.698811, 9.772837 11.346521, 10.662587 10.824368, 11.549113" fill="rgb(81.06359892296,81.06359892296,81.06359892296)"/>
  <polyline points="12.912342, 9.965064 12.942313, 11.336770 12.087658, 11.355444 12.057687, 9.983739 12.912342, 9.965064" fill="rgb(57,152,38)"/>
  <polyline points="14.112982, 9.901679 14.335556, 9.818160 14.568462, 9.787552 14.797066, 9.811779 15.007005, 9.889320 15.185087, 10.015301 15.320122, 10.181806 15.403626, 10.378374 15.430351, 10.592654 15.398620, 10.811182 15.310425, 11.020226 15.171307, 11.206651 14.990009, 11.358745 14.777923, 11.466950 14.548373, 11.524467 14.315783, 11.527682 14.094769, 11.476394 13.899217, 11.373825 13.741414, 11.226419 13.631276, 11.043439 13.575723, 10.836383 13.578246, 10.618259 13.638686, 10.402774 13.753246, 10.203468 13.914727, 10.032863 14.112982, 9.901679" fill="rgb(57,152,38)"/>
  <polyline points="15.838528, 10.058008 16.572702, 9.916018 17.234174, 10.518264 17.161472, 11.262500 16.427298, 11.404490 15.765826, 10.802244 15.838528, 10.058008" fill="rgb(57,152,38)"/>
  <polyline points="18.009873, 10.341937 18.834903, 9.813018 19.197108, 10.454951 18.595934, 11.380606 17.862182, 11.310759 18.009873, 10.341937" fill="rgb(57,152,38)"/>
  <polyline points="20.443049, 11.652015 20.292539, 11.612112 20.155065, 11.512399 20.039265, 11.359143 19.952414, 11.161974 19.899971, 10.933279 19.885229, 10.687430 19.909115, 10.439872 19.970129, 10.206163 20.064437, 10.000985 20.186113, 9.837232 20.327511, 9.725192 20.479748, 9.671906 20.633257, 9.680721 20.778393, 9.751084 20.906036, 9.878573 21.008167, 10.055178 21.078368, 10.269803 21.112228, 10.508961 21.107619, 10.757625 21.064832, 11.000171 20.986554, 11.221359 20.877703, 11.407290 20.745121, 11.546283 20.597137, 11.629603 20.443049, 11.652015" fill="rgb(57,152,38)"/>
  <polyline points="21.830225, 10.500601 22.112377, 10.186661 22.621593, 10.150145 23.059582, 10.412444 23.169775, 10.819907 22.887623, 11.133847 22.378407, 11.170363 21.940418, 10.908064 21.830225, 10.500601" fill="rgb(57,152,38)"/>
  <polyline points="24.371175, 9.855270 24.981842, 10.170343 25.110667, 10.975327 24.628825, 11.465238 24.018158, 11.150165 23.889333, 10.345181 24.371175, 9.855270" fill="rgb(57,152,38)"/>
  <polyline points="26.660348, 9.793877 27.088309, 10.135532 27.171647, 10.784561 26.861543, 11.360773 26.339652, 11.526631 25.911691, 11.184976 25.828353, 10.535947 26.138457, 9.959735 26.660348, 9.793877" fill="rgb(28.227390375990225,28.227390375990225,28.227390375990225)"/>
  <polyline points="28.461288, 10.018614 28.609745, 10.029889 28.751307, 10.080772 28.877078, 10.168066 28.979156, 10.286286 29.051126, 10.428004 29.088468, 10.584315 29.088833, 10.745397 29.052201, 10.901130 28.980871, 11.041727 28.879327, 11.158355 28.753948, 11.243686 28.612612, 11.292357 28.464201, 11.301312 28.318039, 11.269986 28.183310, 11.200348 28.068481, 11.096774 27.980765, 10.965772 27.925674, 10.815574 27.906671, 10.655616 27.924949, 10.495949 27.979359, 10.346606 28.066483, 10.216971 28.180846, 10.115189 28.315263, 10.047656 28.461288, 10.018614" fill="rgb(95.20960076953571,95.20960076953571,95.20960076953571)"/>
  <polyline points="30.689993, 10.092077 31.356624, 10.630847 31.166631, 11.199024 30.310007, 11.228431 29.643376, 10.689661 29.833369, 10.121484 30.689993, 10.092077" fill="rgb(40.353737024833976,40.353737024833976,40.353737024833976)"/>
  <polyline points="32.903926, 11.411912 32.060383, 11.380855 31.656457, 10.629197 32.096074, 9.908596 32.939617, 9.939653 33.343543, 10.691311 32.903926, 11.411912" fill="rgb(118.85568626536676,118.85568626536676,118.85568626536676)"/>
  <polyline points="34.197541, 11.389054 33.869255, 10.186132 34.802459, 9.931454 35.130745, 11.134376 34.197541, 11.389054" fill="rgb(57.492955771711074,57.492955771711074,57.492955771711074)"/>
  <polyline points="2.009477, 12.977100 1.547899, 13.077944 1.058262, 12.777150 0.827389, 12.250919 0.990523, 11.807509 1.452101, 11.706665 1.941738, 12.007460 2.172611, 12.533691 2.009477, 12.977100" fill="rgb(52.4551128666189,52.4551128666189,52.4551128666189)"/>
  <polyline points="4.283320, 11.868955 4.384908, 12.074282 4.430894, 12.299592 4.418389, 12.530727 4.348178, 12.753165 4.224673, 12.952928 4.055633, 13.117466 3.851682, 13.236439 3.625633, 13.302372 3.391690, 13.311122 3.164552, 13.262139 2.958492, 13.158502 2.786457, 13.006722 2.659256, 12.816335 2.584883, 12.599305 2.568009, 12.369269 2.609696, 12.140680 2.707324, 11.927901 2.854759, 11.744303 3.042737, 11.601421 3.259446, 11.508233 3.491270, 11.470595 3.723643, 11.490871 3.941963, 11.567787 4.132513, 11.696511 4.283320, 11.868955" fill="rgb(118.11164224516718,118.11164224516718,118.11164224516718)"/>
  <polyline points="5.302151, 13.263620 4.966954, 12.554400 5.368408, 11.621171 5.951718, 11.753622 5.910769, 12.768712 5.302151, 13.263620" fill="rgb(55.721745181539205,55.721745181539205,55.721745181539205)"/>
  <polyline points="7.773682, 11.866933 8.112993, 12.377661 7.839311, 12.903033 7.226318, 12.917677 6.887007, 12.406949 7.160689, 11.881577 7.773682, 11.866933" fill="rgb(89.51669086925115,89.51669086925115,89.51669086925115)"/>
  <polyline points="9.713173, 11.488053 10.319665, 11.910599 10.446008, 12.615322 10.018193, 13.189404 9.286827, 13.296557 8.680335, 12.874011 8.553992, 12.169288 8.981807, 11.595205 9.713173, 11.488053" fill="rgb(116.81906426458478,116.81906426458478,116.81906426458478)"/>
  <polyline points="11.275713, 11.514327 12.393317, 12.240205 11.724287, 13.270283 10.606683, 12.544405 11.275713, 11.514327" fill="rgb(48.183527996719505,48.183527996719505,48.183527996719505)"/>
  <polyline points="14.078096, 12.205556 14.123648, 12.925411 13.803876, 13.332979 13.306097, 13.189513 12.921904, 12.579053 12.876352, 11.859199 13.196124, 11.451630 13.693903, 11.595096 14.078096, 12.205556" fill="rgb(57,152,38)"/>
  <polyline points="15.843811, 13.111558 15.637561, 13.182388 15.422667, 13.203574 15.212633, 13.173785 15.020655, 13.094893 14.858796, 12.971855 14.737226, 12.812401 14.663584, 12.626551 14.642497, 12.425983 14.675290, 12.223298 14.759903, 12.031233 14.891019, 11.861855 15.060399, 11.725808 15.257401, 11.631638 15.469647, 11.585265 15.683799, 11.589600 15.886403, 11.644373 16.064728, 11.746141 16.207569, 11.888509 16.305950, 12.062533 16.353691, 12.257278 16.347792, 12.460507 16.288622, 12.659451 16.179900, 12.841608 16.028458, 12.995535 15.843811, 13.111558" fill="rgb(57,152,38)"/>
  <polyline points="17.847769, 13.291896 17.006524, 13.100093 16.658755, 12.200502 17.152231, 11.492714 17.993476, 11.684517 18.341245, 12.584108 17.847769, 13.291896" fill="rgb(57,152,38)"/>
  <polyline points="20.097555, 12.043795 20.169438, 12.210184 20.199259, 12.388016 20.185142, 12.566118 20.127975, 12.733298 20.031350, 12.879053 19.901338, 12.994223 19.746109, 13.071573 19.575416, 13.106242 19.399985, 13.096051 19.230837, 13.041642 19.078602, 12.946432 18.952845, 12.816404 18.861468, 12.659729 18.810212, 12.486250 18.802298, 12.306869 18.838223, 12.132856 18.915730, 11.975145 19.029949, 11.843645 19.173703, 11.746620 19.337959, 11.690166 19.512397, 11.677829 19.686056, 11.710386 19.848024, 11.785790 19.988125, 11.899304 20.097555, 12.043795" fill="rgb(57,152,38)"/>
  <polyline points="21.236907, 12.976895 20.785203, 12.508922 20.871756, 11.953134 21.431389, 11.728051 22.042688, 12.003164 22.245332, 12.571308 21.886725, 13.004659 21.236907, 12.976895" fill="rgb(57,152,38)"/>
  <polyline points="22.778037, 11.970025 24.113061, 11.823353 24.221963, 12.814585 22.886939, 12.961257 22.778037, 11.970025" fill="rgb(57,152,38)"/>
  <polyline points="25.180782, 11.977796 25.895342, 11.676131 26.312201, 11.913760 26.117457, 12.511743 25.457755, 13.019787 24.829864, 13.055324 24.706600, 12.591594 25.180782, 11.977796" fill="rgb(42.71757147136589,42.71757147136589,42.71757147136589)"/>
  <polyline points="27.110352, 12.924136 26.662815, 12.187593 27.052464, 11.655761 27.889648, 11.860473 28.337185, 12.597017 27.947536, 13.128848 27.110352, 12.924136" fill="rgb(4.29209225501658,4.29209225501658,4.29209225501658)"/>
  <polyline points="29.637631, 11.907842 30.222865, 12.227450 30.384653, 12.643627 30.028224, 12.912583 29.362369, 12.876767 28.777135, 12.557160 28.615347, 12.140983 28.971776, 11.872027 29.637631, 11.907842" fill="rgb(88.12232923603766,88.12232923603766,88.12232923603766)"/>
  <polyline points="30.698183, 12.573235 31.448020, 11.571973 32.301817, 12.211375 31.551980, 13.212637 30.698183, 12.573235" fill="rgb(0.5876041794599931,0.5876041794599931,0.5876041794599931)"/>
  <polyline points="33.712201, 13.091394 32.946846, 12.869564 33.287799, 11.693215 34.053154, 11.915046 33.712201, 13.091394" fill="rgb(84.63636792575726,84.63636792575726,84.63636792575726)"/>
  <polyline points="1.657379, 14.012641 2.359937, 13.182295 3.256058, 13.653845 3.107332, 14.775625 2.119294, 14.997373 1.657379, 14.012641" fill="rgb(107.03685260181555,107.03685260181555,107.03685260181555)"/>
  <polyline points="3.838255, 14.068451 4.074552, 13.582023 4.560071, 13.413286 5.010401, 13.661084 5.161745, 14.180260 4.925448, 14.666688 4.439929, 14.835425 3.989599, 14.587628 3.838255, 14.068451" fill="rgb(85.43294845896956,85.43294845896956,85.43294845896956)"/>
  <polyline points="6.203733, 14.940793 5.741094, 14.425037 5.849926, 13.682861 6.448278, 13.273140 7.085577, 13.504401 7.281925, 14.202501 6.889467, 14.841756 6.203733, 14.940793" fill="rgb(67.23892847141899,67.23892847141899,67.23892847141899)"/>
  <polyline points="8.897829, 14.663995 8.127004, 14.681449 8.102171, 13.584716 8.872996, 13.567262 8.897829, 14.663995" fill="rgb(20.72513913830694,20.72513913830694,20.72513913830694)"/>
  <polyline points="10.001740, 14.367840 9.889793, 13.663180 10.237345, 13.305795 10.782681, 13.564803 11.115153, 14.245166 10.984402, 14.834556 10.488887, 14.889151 10.001740, 14.367840" fill="rgb(32.47600530106216,32.47600530106216,32.47600530106216)"/>
  <polyline points="13.114890, 14.394945 13.033534, 14.527419 12.918654, 14.634568 12.777469, 14.709658 12.618849, 14.747971 12.452762, 14.747100 12.289643, 14.707100 12.139741, 14.630484 12.012476, 14.522066 11.915843, 14.388658 11.855915, 14.238643 11.836458, 14.081448 11.858693, 13.926948 11.921224, 13.784852 12.020122, 13.664088 12.149172, 13.572245 12.300266, 13.515093 12.463910, 13.496223 12.629821, 13.516821 12.787576, 13.575592 12.927261, 13.668845 13.040099, 13.790718 13.119002, 13.933556 13.159010, 14.088382 13.157610, 14.245469 13.114890, 14.394945" fill="rgb(76.66707077504704,76.66707077504704,76.66707077504704)"/>
  <polyline points="13.940589, 14.910739 13.699530, 14.293343 14.061242, 13.548697 14.753347, 13.237533 15.254677, 13.594165 15.187720, 14.350041 14.602896, 14.935972 13.940589, 14.910739" fill="rgb(57,152,38)"/>
  <polyline points="16.366683, 14.841192 15.804099, 14.224109 16.203227, 13.469170 17.012485, 13.619676 17.113506, 14.467632 16.366683, 14.841192" fill="rgb(57,152,38)"/>
  <polyline points="19.121112, 14.131154 18.801187, 14.983730 18.180075, 14.976931 17.878888, 14.117557 18.198813, 13.264981 18.819925, 13.271780 19.121112, 14.131154" fill="rgb(57,152,38)"/>
  <polyline points="20.920575, 14.893467 20.282004, 14.743111 19.861428, 13.974000 20.079425, 13.355244 20.717996, 13.505600 21.138572, 14.274712 20.920575, 14.893467" fill="rgb(57,152,38)"/>
  <polyline points="22.298924, 13.427453 23.162539, 13.829151 22.701076, 14.821258 21.837461, 14.419561 22.298924, 13.427453" fill="rgb(119.45672166328343,119.45672166328343,119.45672166328343)"/>
  <polyline points="23.615645, 14.305012 23.792426, 13.849510 24.383694, 13.555009 25.043093, 13.594024 25.384355, 13.943700 25.207574, 14.399202 24.616306, 14.693702 23.956907, 14.654688 23.615645, 14.305012" fill="rgb(108.61524546963105,108.61524546963105,108.61524546963105)"/>
  <polyline points="26.938991, 14.492375 26.041876, 14.946369 25.777873, 14.264369 26.511825, 13.388875 27.229435, 13.529791 26.938991, 14.492375" fill="rgb(65.66526531127829,65.66526531127829,65.66526531127829)"/>
  <polyline points="27.870822, 14.508561 28.495001, 13.387163 29.129178, 13.740150 28.504999, 14.861549 27.870822, 14.508561" fill="rgb(103.45862656296524,103.45862656296524,103.45862656296524)"/>
  <polyline points="31.307060, 14.207883 30.835605, 14.822424 30.028545, 14.738897 29.692940, 14.040828 30.164395, 13.426288 30.971455, 13.509815 31.307060, 14.207883" fill="rgb(2.5456581165775156,2.5456581165775156,2.5456581165775156)"/>
  <polyline points="31.745729, 14.382177 31.968689, 13.331542 32.925902, 13.376548 33.294533, 14.454999 32.565147, 15.076512 31.745729, 14.382177" fill="rgb(80.79652048790072,80.79652048790072,80.79652048790072)"/>
  <polyline points="35.183348, 13.784798 35.184375, 14.432493 34.670053, 14.848154 34.027678, 14.718781 33.740971, 14.141793 34.025828, 13.551675 34.667746, 13.392797 35.183348, 13.784798" fill="rgb(99.44291467619438,99.44291467619438,99.44291467619438)"/>
  <polyline points="1.904869, 16.458323 1.132143, 16.373996 0.867783, 15.574377 1.477125, 15.164514 2.118080, 15.710822 1.904869, 16.458323" fill="rgb(72.2572851608805,72.2572851608805,72.2572851608805)"/>
  <polyline points="2.623963, 15.854918 3.062760, 15.397648 3.938797, 15.399137 4.376037, 15.857895 3.937240, 16.315164 3.061203, 16.313676 2.623963, 15.854918" fill="rgb(111.4968428728078,111.4968428728078,111.4968428728078)"/>
  <polyline points="5.555657, 16.401083 4.807499, 16.270315 4.580808, 15.827865 5.046288, 15.406908 5.853422, 15.324432 6.394422, 15.642544 6.261904, 16.121699 5.555657, 16.401083" fill="rgb(66.90311572626109,66.90311572626109,66.90311572626109)"/>
  <polyline points="6.829852, 16.323724 6.804485, 15.573182 7.474633, 15.105864 8.170148, 15.389089 8.195515, 16.139631 7.525367, 16.606949 6.829852, 16.323724" fill="rgb(87.26721182965404,87.26721182965404,87.26721182965404)"/>
  <polyline points="9.719344, 16.345970 9.123113, 16.391778 8.810685, 16.034441 9.017326, 15.543039 9.587430, 15.287610 10.091697, 15.460496 10.150405, 15.931511 9.719344, 16.345970" fill="rgb(203,60,51)"/>
  <polyline points="11.878061, 15.217211 12.144651, 15.627599 12.033613, 16.172019 11.609991, 16.531558 11.121939, 16.495602 10.855349, 16.085214 10.966387, 15.540794 11.390009, 15.181255 11.878061, 15.217211" fill="rgb(37.20486835977102,37.20486835977102,37.20486835977102)"/>
  <polyline points="12.952268, 16.414781 12.871308, 15.391068 14.047732, 15.298032 14.128692, 16.321745 12.952268, 16.414781" fill="rgb(18.146187162560853,18.146187162560853,18.146187162560853)"/>
  <polyline points="15.626078, 16.438113 15.441837, 16.458911 15.261251, 16.441852 15.095666, 16.388007 14.955487, 16.300759 14.849522, 16.185592 14.784429, 16.049740 14.764297, 15.901740 14.790393, 15.750892 14.861076, 15.606674 14.971904, 15.478148 15.115915, 15.373388 15.284060, 15.298979 15.465772, 15.259595 15.649636, 15.257711 15.824097, 15.293445 15.978194, 15.364551 16.102244, 15.466563 16.188453, 15.593071 16.231404, 15.736124 16.228399, 15.886736 16.179625, 16.035441 16.088148, 16.172898 15.959715, 16.290468 15.802397, 16.380764 15.626078, 16.438113" fill="rgb(55.79074166038973,55.79074166038973,55.79074166038973)"/>
  <polyline points="18.058093, 16.240111 17.057251, 16.368920 16.941907, 15.472702 17.942749, 15.343893 18.058093, 16.240111" fill="rgb(98.3452459513777,98.3452459513777,98.3452459513777)"/>
  <polyline points="19.339353, 15.029969 19.750528, 15.201247 20.014947, 15.756308 19.977717, 16.370006 19.660647, 16.682844 19.249472, 16.511566 18.985053, 15.956504 19.022283, 15.342807 19.339353, 15.029969" fill="rgb(27.270176930950473,27.270176930950473,27.270176930950473)"/>
  <polyline points="22.401824, 16.017563 21.851446, 16.493590 20.949622, 16.332433 20.598176, 15.695250 21.148554, 15.219223 22.050378, 15.380380 22.401824, 16.017563" fill="rgb(122.92233499100472,122.92233499100472,122.92233499100472)"/>
  <polyline points="23.630752, 15.169642 24.052679, 15.517918 24.058427, 16.121084 23.643669, 16.524941 23.120724, 16.425379 22.883382, 15.897368 23.110366, 15.338513 23.630752, 15.169642" fill="rgb(16.903190962118142,16.903190962118142,16.903190962118142)"/>
  <polyline points="25.114924, 15.298287 25.322322, 15.181073 25.540885, 15.106294 25.756878, 15.078647 25.956730, 15.099869 26.127885, 15.168627 26.259587, 15.280601 26.343562, 15.428755 26.374532, 15.603780 26.350553, 15.794678 26.273130, 15.989455 26.147128, 16.175872 25.980465, 16.342216 25.783613, 16.478035 25.568940, 16.574794 25.349936, 16.626414 25.140360, 16.629652 24.953382, 16.584305 24.800750, 16.493220 24.692055, 16.362122 24.634125, 16.199249 24.630602, 16.014833 24.681706, 15.820463 24.784227, 15.628351 24.931722, 15.450569 25.114924, 15.298287" fill="rgb(149,88,178)"/>
  <polyline points="28.082934, 16.203609 27.392566, 16.699741 26.809632, 16.352538 26.917066, 15.509203 27.607434, 15.013072 28.190368, 15.360275 28.082934, 16.203609" fill="rgb(124.6244887181922,124.6244887181922,124.6244887181922)"/>
  <polyline points="30.157988, 15.600988 30.019157, 16.591088 29.162869, 16.565883 28.772484, 15.560205 29.387501, 14.963867 30.157988, 15.600988" fill="rgb(112.90670639497331,112.90670639497331,112.90670639497331)"/>
  <polyline points="31.360240, 15.173198 31.955736, 15.543222 31.921420, 16.346056 31.304716, 16.472211 30.957888, 15.747346 31.360240, 15.173198" fill="rgb(112.37433261785952,112.37433261785952,112.37433261785952)"/>
  <polyline points="33.314659, 15.133945 34.043566, 15.236867 34.363157, 15.806314 34.032773, 16.413482 33.301200, 16.601161 32.719327, 16.228024 32.725317, 15.575052 33.314659, 15.133945" fill="rgb(100.02637400905542,100.02637400905542,100.02637400905542)"/>
  <polyline points="2.516895, 18.489660 1.865756, 18.051107 1.848862, 17.149904 2.483105, 16.687254 3.134244, 17.125807 3.151138, 18.027011 2.516895, 18.489660" fill="rgb(89.82154224386055,89.82154224386055,89.82154224386055)"/>
  <polyline points="4.426948, 17.024363 4.614091, 17.018147 4.794065, 17.047765 4.955562, 17.111357 5.088434, 17.204928 5.184333, 17.322596 5.237232, 17.456970 5.243809, 17.599606 5.203649, 17.741541 5.119277, 17.873857 4.995993, 17.988241 4.841544, 18.077504 4.665634, 18.136039 4.479317, 18.160168 4.294300, 18.148374 4.122207, 18.101398 3.973853, 18.022192 3.858559, 17.915733 3.783568, 17.788710 3.753594, 17.649105 3.770519, 17.505689 3.833280, 17.367473 3.937933, 17.243143 4.077904, 17.140510 4.244396, 17.066023 4.426948, 17.024363" fill="rgb(11.723702421458764,11.723702421458764,11.723702421458764)"/>
  <polyline points="6.878532, 17.051508 7.223221, 17.597143 7.023309, 18.136237 6.429335, 18.262842 5.888573, 17.881622 5.808228, 17.279642 6.248801, 16.910207 6.878532, 17.051508" fill="rgb(203,60,51)"/>
  <polyline points="8.235426, 16.896014 9.227435, 17.065299 9.214153, 17.957571 8.213936, 18.339741 7.609050, 17.683662 8.235426, 16.896014" fill="rgb(203,60,51)"/>
  <polyline points="10.024309, 17.325412 10.752863, 16.784067 11.131969, 17.354362 10.637716, 18.248169 9.953144, 18.230277 10.024309, 17.325412" fill="rgb(203,60,51)"/>
  <polyline points="12.196676, 17.021342 12.951237, 17.121730 13.082204, 17.867119 12.408585, 18.227407 11.861298, 17.704688 12.196676, 17.021342" fill="rgb(203,60,51)"/>
  <polyline points="14.987219, 17.952944 14.518265, 18.197361 14.035557, 17.983262 13.902584, 17.471867 14.219478, 17.048266 14.747610, 17.031441 15.089287, 17.434060 14.987219, 17.952944" fill="rgb(203,60,51)"/>
  <polyline points="15.808001, 17.969859 15.736993, 17.789597 15.713927, 17.596697 15.740253, 17.403279 15.814317, 17.221497 15.931464, 17.062772 16.084335, 16.937077 16.263324, 16.852312 16.457184, 16.813801 16.653734, 16.823964 16.840624, 16.882164 17.006112, 16.984742 17.139799, 17.125254 17.233285, 17.294871 17.280696, 17.482935 17.279053, 17.677630 17.228459, 17.866721 17.132094, 18.038328 16.996012, 18.181668 16.828763, 18.287734 16.640857, 18.349862 16.444101, 18.364149 16.250856, 18.329695 16.073267, 18.248667 15.922491, 18.126156 15.808001, 17.969859" fill="rgb(29.9756990272855,29.9756990272855,29.9756990272855)"/>
  <polyline points="18.847290, 16.911473 19.285989, 17.564095 18.938699, 18.241079 18.152710, 18.265442 17.714011, 17.612820 18.061301, 16.935835 18.847290, 16.911473" fill="rgb(99.19237132327572,99.19237132327572,99.19237132327572)"/>
  <polyline points="20.629294, 18.119281 20.002670, 18.060191 19.750546, 17.645876 20.062776, 17.188323 20.704245, 17.032079 21.191913, 17.294799 21.158557, 17.778650 20.629294, 18.119281" fill="rgb(55.994124147886176,55.994124147886176,55.994124147886176)"/>
  <polyline points="22.444010, 18.440821 22.053925, 18.164468 21.925144, 17.550696 22.133106, 16.959044 22.555990, 16.736094 22.946075, 17.012446 23.074856, 17.626218 22.866894, 18.217870 22.444010, 18.440821" fill="rgb(149,88,178)"/>
  <polyline points="24.927079, 17.238512 25.180707, 17.876044 24.921749, 18.297017 24.345206, 18.184431 23.885225, 17.623064 23.888183, 17.035638 24.351851, 16.864496 24.927079, 17.238512" fill="rgb(149,88,178)"/>
  <polyline points="26.810021, 17.980984 25.898081, 18.260821 25.817972, 17.611474 26.680403, 16.930319 27.293523, 17.158688 26.810021, 17.980984" fill="rgb(149,88,178)"/>
  <polyline points="28.790741, 18.335167 27.914832, 18.135892 28.209259, 16.841747 29.085168, 17.041023 28.790741, 18.335167" fill="rgb(149,88,178)"/>
  <polyline points="29.903888, 16.908621 30.709342, 17.033293 31.225492, 17.925183 30.739037, 18.351730 29.922241, 17.723460 29.903888, 16.908621" fill="rgb(125.36276568962931,125.36276568962931,125.36276568962931)"/>
  <polyline points="32.381197, 18.117581 31.929001, 17.853261 31.811288, 17.433822 32.097013, 17.104967 32.618803, 17.059333 33.070999, 17.323653 33.188712, 17.743092 32.902987, 18.071948 32.381197, 18.117581" fill="rgb(83.95663441391716,83.95663441391716,83.95663441391716)"/>
  <polyline points="33.986488, 18.131246 33.830593, 17.951444 33.716760, 17.748835 33.652141, 17.536149 33.640796, 17.326749 33.683438, 17.133794 33.777387, 16.969406 33.916741, 16.843916 34.092743, 16.765208 34.294335, 16.738228 34.508849, 16.764671 34.722807, 16.842876 34.922766, 16.967928 35.096160, 17.131970 35.232096, 17.324695 35.322031, 17.533993 35.360315, 17.746713 35.344543, 17.949490 35.275704, 18.129581 35.158125, 18.275672 34.999194, 18.378583 34.808897, 18.431847 34.599190, 18.432117 34.383251, 18.379378 34.174648, 18.276942 33.986488, 18.131246" fill="rgb(121.90108211010121,121.90108211010121,121.90108211010121)"/>
  <polyline points="1.421063, 18.383481 1.987163, 18.612188 2.267889, 19.255820 2.098796, 19.937345 1.578937, 20.257535 1.012837, 20.028828 0.732111, 19.385196 0.901204, 18.703671 1.421063, 18.383481" fill="rgb(115.53246677876457,115.53246677876457,115.53246677876457)"/>
  <polyline points="2.598748, 19.067911 3.035926, 18.523902 3.744952, 18.446533 4.310489, 18.881128 4.401252, 19.573105 3.964074, 20.117115 3.255048, 20.194483 2.689511, 19.759888 2.598748, 19.067911" fill="rgb(32.21845398495128,32.21845398495128,32.21845398495128)"/>
  <polyline points="5.625017, 18.732789 6.099309, 19.363780 5.374983, 19.908227 4.900691, 19.277236 5.625017, 18.732789" fill="rgb(203,60,51)"/>
  <polyline points="7.297293, 19.885385 6.682554, 19.345976 6.885261, 18.781099 7.702707, 18.755631 8.317446, 19.295040 8.114739, 19.859917 7.297293, 19.885385" fill="rgb(203,60,51)"/>
  <polyline points="9.012117, 19.138256 9.659632, 18.824762 9.987883, 19.502760 9.340368, 19.816254 9.012117, 19.138256" fill="rgb(203,60,51)"/>
  <polyline points="10.656782, 19.741791 10.623577, 19.609071 10.645441, 19.458219 10.721000, 19.298714 10.845506, 19.140579 11.011137, 18.993749 11.207485, 18.867451 11.422212, 18.769620 11.641827, 18.706404 11.852531, 18.681773 12.041084, 18.697277 12.195638, 18.751941 12.306483, 18.842330 12.366654, 18.962764 12.372370, 19.105677 12.323271, 19.262089 12.222444, 19.422171 12.076222, 19.575866 11.893794, 19.713515 11.686623, 19.826470 11.467726, 19.907634 11.250856, 19.951906 11.049641, 19.956506 10.876724, 19.921143 10.742970, 19.848041 10.656782, 19.741791" fill="rgb(203,60,51)"/>
  <polyline points="13.684246, 18.407451 14.218384, 18.990353 14.034138, 19.903410 13.315754, 20.233565 12.781616, 19.650663 12.965862, 18.737606 13.684246, 18.407451" fill="rgb(203,60,51)"/>
  <polyline points="15.570585, 18.628748 15.967618, 18.932426 16.012525, 19.528338 15.671490, 19.967750 15.201320, 19.919775 14.956062, 19.420540 15.120400, 18.845979 15.570585, 18.628748" fill="rgb(203,60,51)"/>
  <polyline points="18.166674, 18.756595 18.220157, 19.215838 17.851783, 19.736395 17.277338, 20.013332 16.833326, 19.884421 16.779843, 19.425178 17.148217, 18.904621 17.722662, 18.627685 18.166674, 18.756595" fill="rgb(71.0912113079756,71.0912113079756,71.0912113079756)"/>
  <polyline points="19.020511, 18.445790 19.195578, 18.385563 19.389773, 18.384082 19.590893, 18.441440 19.786303, 18.554034 19.963723, 18.714787 20.112006, 18.913601 20.221834, 19.137982 20.286307, 19.373831 20.301373, 19.606330 20.266086, 19.820870 20.182663, 20.003971 20.056345, 20.144127 19.895071, 20.232531 19.708973, 20.263631 19.509744, 20.235470 19.309903, 20.149819 19.122006, 20.012059 18.957861, 19.830846 18.827779, 19.617567 18.739936, 19.385623 18.699851, 19.149588 18.710042, 18.924291 18.769868, 18.723891 18.875572, 18.560978 19.020511, 18.445790" fill="rgb(15.753154594168533,15.753154594168533,15.753154594168533)"/>
  <polyline points="21.584451, 18.708349 21.971400, 19.073636 21.886949, 19.685795 21.415549, 19.932667 21.028600, 19.567380 21.113051, 18.955221 21.584451, 18.708349" fill="rgb(149,88,178)"/>
  <polyline points="24.452045, 19.477983 24.384288, 19.701842 24.260969, 19.901741 24.089835, 20.065119 23.881639, 20.181710 23.649464, 20.244188 23.407897, 20.248628 23.172118, 20.194751 22.956940, 20.085943 22.775885, 19.929039 22.640329, 19.733899 22.558789, 19.512784 22.536389, 19.279587 22.574536, 19.048962 22.670833, 18.835399 22.819230, 18.652317 23.010403, 18.511221 23.232338, 18.420974 23.471092, 18.387249 23.711662, 18.412164 23.938932, 18.494153 24.138623, 18.628065 24.298187, 18.805486 24.407598, 19.015268 24.459981, 19.244229 24.452045, 19.477983" fill="rgb(149,88,178)"/>
  <polyline points="24.959830, 19.684319 24.795130, 19.000833 25.161212, 18.558069 25.782408, 18.689437 26.190945, 19.296014 26.079187, 19.921036 25.531289, 20.093848 24.959830, 19.684319" fill="rgb(149,88,178)"/>
  <polyline points="28.188987, 19.576553 28.092307, 19.770416 27.958411, 19.936009 27.795711, 20.062929 27.614430, 20.143199 27.425960, 20.171777 27.242141, 20.146867 27.074525, 20.070033 26.933643, 19.946104 26.828347, 19.782866 26.765254, 19.590577 26.748327, 19.381318 26.778631, 19.168239 26.854261, 18.964727 26.970465, 18.783570 27.119942, 18.636151 27.293299, 18.531732 27.479644, 18.476876 27.667268, 18.475027 27.844382, 18.526304 27.999857, 18.627483 28.123925, 18.772208 28.208789, 18.951384 28.249116, 19.153754 28.242375, 19.366601 28.188987, 19.576553" fill="rgb(149,88,178)"/>
  <polyline points="29.208864, 18.781833 30.072698, 18.795901 30.145083, 19.534958 29.325985, 19.977653 28.747370, 19.512196 29.208864, 18.781833" fill="rgb(149,88,178)"/>
  <polyline points="30.863439, 18.782314 31.546319, 18.620173 32.182880, 19.158367 32.136561, 19.858702 31.453681, 20.020843 30.817120, 19.482649 30.863439, 18.782314" fill="rgb(149,88,178)"/>
  <polyline points="34.127239, 18.782410 34.260406, 18.977512 34.345794, 19.194167 34.378037, 19.418760 34.355111, 19.637180 34.278454, 19.835701 34.152885, 20.001852 33.986292, 20.125191 33.789144, 20.197969 33.573827, 20.215612 33.353872, 20.177014 33.143099, 20.084597 32.954751, 19.944170 32.800663, 19.764557 32.690517, 19.557042 32.631234, 19.334664 32.626538, 19.111397 32.676726, 18.901270 32.778642, 18.717485 32.925885, 18.571589 33.109201, 18.472752 33.317072, 18.427181 33.536437, 18.437742 33.753513, 18.503771 33.954660, 18.621117 34.127239, 18.782410" fill="rgb(91.2605953893906,91.2605953893906,91.2605953893906)"/>
  <polyline points="2.993589, 20.843458 3.029715, 20.971909 3.032557, 21.105427 3.001936, 21.235623 2.939777, 21.354317 2.849986, 21.454050 2.738203, 21.528556 2.611453, 21.573153 2.477700, 21.585039 2.345349, 21.563468 2.222714, 21.509795 2.117503, 21.427391 2.036325, 21.321436 1.984282, 21.198586 1.964643, 21.066560 1.978642, 20.933655 2.025401, 20.808221 2.101980, 20.698140 2.203568, 20.610328 2.323782, 20.550303 2.455069, 20.521837 2.589179, 20.526718 2.717685, 20.564639 2.832513, 20.633218 2.926449, 20.728146 2.993589, 20.843458" fill="rgb(41.22532962446603,41.22532962446603,41.22532962446603)"/>
  <polyline points="5.173220, 21.770265 4.248069, 21.705799 3.671078, 20.738577 4.239629, 20.205267 5.168004, 20.842885 5.173220, 21.770265" fill="rgb(203,60,51)"/>
  <polyline points="7.407787, 21.004601 7.386232, 21.137928 7.308991, 21.265891 7.180918, 21.380449 7.010060, 21.474405 6.807154, 21.541855 6.584948, 21.578560 6.357404, 21.582215 6.138820, 21.552590 5.942931, 21.491545 5.782044, 21.402918 5.666269, 21.292276 5.602880, 21.166572 5.595861, 21.033705 5.645652, 20.902021 5.749125, 20.779797 5.899778, 20.674711 6.088145, 20.593367 6.302391, 20.540876 6.529053, 20.520535 6.753890, 20.533623 6.962773, 20.579319 7.142579, 20.654749 7.282010, 20.755175 7.372304, 20.874288 7.407787, 21.004601" fill="rgb(203,60,51)"/>
  <polyline points="8.290168, 20.497838 9.087372, 20.970466 8.709832, 21.607280 7.912628, 21.134652 8.290168, 20.497838" fill="rgb(203,60,51)"/>
  <polyline points="10.903491, 20.710607 11.006367, 21.397260 10.409462, 21.607548 9.937677, 21.050860 10.243003, 20.496520 10.903491, 20.710607" fill="rgb(203,60,51)"/>
  <polyline points="13.320841, 21.159907 12.948105, 21.606428 12.237937, 21.635875 11.725108, 21.226073 11.795788, 20.685611 12.396754, 20.421469 13.075467, 20.632550 13.320841, 21.159907" fill="rgb(203,60,51)"/>
  <polyline points="15.092977, 21.247251 14.474477, 21.748553 13.891249, 21.288015 14.149294, 20.502084 14.892003, 20.476891 15.092977, 21.247251" fill="rgb(203,60,51)"/>
  <polyline points="16.663940, 21.716399 16.434056, 21.751043 16.208315, 21.741799 16.000902, 21.689247 15.824849, 21.596690 15.691218, 21.469943 15.608406, 21.316970 15.581616, 21.147383 15.612531, 20.971838 15.699210, 20.801365 15.836205, 20.646676 16.014908, 20.517490 16.224092, 20.421924 16.450612, 20.365983 16.680236, 20.353182 16.898534, 20.384326 17.091791, 20.457457 17.247864, 20.567981 17.356946, 20.708952 17.412182, 20.871514 17.410103, 21.045451 17.350839, 21.219835 17.238113, 21.383708 17.079009, 21.526774 16.883524, 21.640044 16.663940, 21.716399" fill="rgb(203,60,51)"/>
  <polyline points="19.384095, 21.310272 18.625579, 21.638618 17.693517, 21.157050 17.875987, 20.531079 18.920822, 20.625775 19.384095, 21.310272" fill="rgb(20.555750332777404,20.555750332777404,20.555750332777404)"/>
  <polyline points="19.913297, 21.316477 19.862724, 21.154782 19.852193, 20.986664 19.882366, 20.822686 19.951347, 20.673152 20.054802, 20.547458 20.186231, 20.453501 20.337374, 20.397185 20.498737, 20.382048 20.660178, 20.409043 20.811555, 20.476471 20.943356, 20.580098 21.047299, 20.713411 21.116854, 20.868034 21.147649, 21.034251 21.137750, 21.201618 21.087779, 21.359620 21.000875, 21.498328 20.882500, 21.609026 20.740091, 21.684760 20.582596, 21.720770 20.419911, 21.714794 20.262259, 21.667207 20.119544, 21.581000 20.000735, 21.461589 19.913297, 21.316477" fill="rgb(149,88,178)"/>
  <polyline points="21.939733, 20.450678 22.450781, 20.304004 22.990660, 20.595823 23.243117, 21.155193 23.060267, 21.654440 22.549219, 21.801114 22.009340, 21.509294 21.756883, 20.949925 21.939733, 20.450678" fill="rgb(149,88,178)"/>
  <polyline points="23.813507, 20.816659 24.534698, 20.261342 25.207938, 20.799459 24.902831, 21.687352 24.041026, 21.697982 23.813507, 20.816659" fill="rgb(149,88,178)"/>
  <polyline points="27.238348, 20.807842 27.281821, 21.016681 27.276168, 21.227775 27.221747, 21.427859 27.121975, 21.604361 26.983122, 21.746192 26.813913, 21.844439 26.624980, 21.892929 26.428194, 21.888616 26.235919, 21.831771 26.060238, 21.725964 25.912188, 21.577845 25.801073, 21.396721 25.733875, 21.193971 25.714814, 20.982336 25.745090, 20.775113 25.822799, 20.585324 25.943060, 20.424892 26.098315, 20.303899 26.278809, 20.229947 26.473202, 20.207683 26.669278, 20.238505 26.854719, 20.320478 27.017870, 20.448449 27.148483, 20.614380 27.238348, 20.807842" fill="rgb(149,88,178)"/>
  <polyline points="28.695473, 20.350182 28.926467, 20.438244 29.130666, 20.564905 29.295237, 20.722208 29.409840, 20.900267 29.467275, 21.087896 29.463932, 21.273305 29.400022, 21.444843 29.279561, 21.591732 29.110116, 21.704743 28.902336, 21.776775 28.669276, 21.803302 28.425579, 21.782657 28.186558, 21.716137 27.967232, 21.607923 27.781382, 21.464812 27.640686, 21.295798 27.553983, 21.111501 27.526722, 20.923500 27.560615, 20.743608 27.653534, 20.583129 27.799639, 20.452146 27.989750, 20.358889 28.211923, 20.309217 28.452196, 20.306253 28.695473, 20.350182" fill="rgb(149,88,178)"/>
  <polyline points="29.999328, 21.630603 29.733017, 20.894088 30.233688, 20.316044 31.000672, 20.474515 31.266983, 21.211030 30.766312, 21.789074 29.999328, 21.630603" fill="rgb(149,88,178)"/>
  <polyline points="32.817783, 20.281252 33.431830, 21.157672 32.758120, 21.888830 31.727697, 21.464290 31.764570, 20.470752 32.817783, 20.281252" fill="rgb(68.58619659277065,68.58619659277065,68.58619659277065)"/>
  <polyline points="34.383653, 20.339487 34.969504, 20.749736 34.906516, 21.578476 34.281737, 21.680417 33.958590, 20.914679 34.383653, 20.339487" fill="rgb(47.03626237843313,47.03626237843313,47.03626237843313)"/>
  <polyline points="1.842349, 23.257875 1.279871, 23.393327 0.883155, 23.070403 0.950935, 22.532270 1.432173, 22.184154 1.964486, 22.288194 2.147031, 22.766044 1.842349, 23.257875" fill="rgb(16.57574911755788,16.57574911755788,16.57574911755788)"/>
  <polyline points="4.090088, 22.600823 3.984210, 23.043414 3.513712, 23.291120 3.032889, 23.157414 2.903810, 22.742978 3.223674, 22.359892 3.751618, 22.296627 4.090088, 22.600823" fill="rgb(203,60,51)"/>
  <polyline points="6.248432, 22.359550 5.679973, 23.626296 4.751568, 23.209670 5.320027, 21.942923 6.248432, 22.359550" fill="rgb(203,60,51)"/>
  <polyline points="7.454144, 21.832213 7.924736, 22.089152 8.146524, 22.753481 7.989586, 23.436045 7.545856, 23.737006 7.075264, 23.480067 6.853476, 22.815738 7.010414, 22.133175 7.454144, 21.832213" fill="rgb(203,60,51)"/>
  <polyline points="8.895297, 22.688840 9.431261, 22.176241 10.104703, 22.880379 9.568739, 23.392978 8.895297, 22.688840" fill="rgb(203,60,51)"/>
  <polyline points="10.674416, 22.741835 11.120785, 22.115160 11.946369, 22.157934 12.325584, 22.827384 11.879215, 23.454060 11.053631, 23.411285 10.674416, 22.741835" fill="rgb(203,60,51)"/>
  <polyline points="13.389139, 22.230977 14.007349, 22.323991 14.243514, 22.763861 13.919799, 23.219355 13.279966, 23.347477 12.805824, 23.051748 12.854410, 22.554859 13.389139, 22.230977" fill="rgb(203,60,51)"/>
  <polyline points="15.281254, 21.847512 15.980249, 22.178426 16.198994, 23.115524 15.718746, 23.721708 15.019751, 23.390793 14.801006, 22.453695 15.281254, 21.847512" fill="rgb(203,60,51)"/>
  <polyline points="16.886966, 22.515416 17.303999, 22.053451 17.835846, 22.019789 18.170959, 22.434149 18.113034, 23.053804 17.696001, 23.515768 17.164154, 23.549430 16.829041, 23.135071 16.886966, 22.515416" fill="rgb(101.30491055256914,101.30491055256914,101.30491055256914)"/>
  <polyline points="19.528940, 23.304520 19.069945, 23.133711 18.934790, 22.700021 19.225250, 22.330029 19.722602, 22.302345 20.052331, 22.637816 19.966142, 23.083826 19.528940, 23.304520" fill="rgb(149,88,178)"/>
  <polyline points="22.009526, 23.114651 21.466362, 23.394871 20.956836, 23.064830 20.990474, 22.454569 21.533638, 22.174348 22.043164, 22.504389 22.009526, 23.114651" fill="rgb(149,88,178)"/>
  <polyline points="23.112499, 22.253539 24.016657, 22.156143 24.206813, 22.927266 23.420177, 23.501243 22.743854, 23.084857 23.112499, 22.253539" fill="rgb(149,88,178)"/>
  <polyline points="24.869002, 23.509208 24.762686, 23.043453 25.088278, 22.426072 25.655051, 22.018717 26.130998, 22.060012 26.237314, 22.525766 25.911722, 23.143147 25.344949, 23.550502 24.869002, 23.509208" fill="rgb(149,88,178)"/>
  <polyline points="27.968647, 22.170105 27.927643, 23.428323 27.031353, 23.399114 27.072357, 22.140896 27.968647, 22.170105" fill="rgb(149,88,178)"/>
  <polyline points="28.666355, 22.767118 28.996223, 22.011531 29.705445, 21.838088 30.259963, 22.377395 30.242214, 23.223343 29.665562, 23.738916 28.964239, 23.535876 28.666355, 22.767118" fill="rgb(149,88,178)"/>
  <polyline points="30.983783, 23.561950 30.703799, 23.047933 30.890218, 22.379665 31.433840, 21.948608 32.016217, 22.007270 32.296201, 22.521286 32.109782, 23.189554 31.566160, 23.620611 30.983783, 23.561950" fill="rgb(149,88,178)"/>
  <polyline points="33.822001, 23.315821 32.890651, 22.905295 33.177999, 22.253398 34.109349, 22.663925 33.822001, 23.315821" fill="rgb(49.729562429715415,49.729562429715415,49.729562429715415)"/>
  <polyline points="3.237854, 24.493126 2.441008, 25.252529 1.762146, 24.540195 2.558992, 23.780792 3.237854, 24.493126" fill="rgb(105.83099915205155,105.83099915205155,105.83099915205155)"/>
  <polyline points="4.017850, 24.095698 5.068386, 24.222356 4.982150, 24.937623 3.931614, 24.810965 4.017850, 24.095698" fill="rgb(203,60,51)"/>
  <polyline points="6.749832, 23.762753 7.001062, 25.132882 6.250168, 25.270568 5.998938, 23.900439 6.749832, 23.762753" fill="rgb(203,60,51)"/>
  <polyline points="7.799192, 24.913534 7.864214, 24.211163 8.565021, 23.814290 9.200808, 24.119787 9.135786, 24.822158 8.434979, 25.219031 7.799192, 24.913534" fill="rgb(203,60,51)"/>
  <polyline points="11.076038, 24.366555 11.001963, 24.773716 10.633844, 25.030297 10.187322, 24.985997 9.923962, 24.666766 9.998037, 24.259605 10.366156, 24.003024 10.812678, 24.047324 11.076038, 24.366555" fill="rgb(203,60,51)"/>
  <polyline points="12.950604, 23.912542 13.250765, 24.490430 12.985584, 25.088070 12.354749, 25.255427 11.833291, 24.866478 11.813878, 24.214109 12.311129, 23.789568 12.950604, 23.912542" fill="rgb(203,60,51)"/>
  <polyline points="13.835009, 24.399136 14.191736, 23.841616 14.780592, 23.792418 15.158157, 24.288590 15.040116, 24.956503 14.515356, 25.293206 13.979034, 25.045154 13.835009, 24.399136" fill="rgb(203,60,51)"/>
  <polyline points="15.919675, 24.476899 16.372558, 23.747059 17.001562, 24.080782 16.937424, 25.016874 16.268782, 25.261688 15.919675, 24.476899" fill="rgb(203,60,51)"/>
  <polyline points="18.146772, 23.591524 19.064413, 23.771160 19.417641, 24.696296 18.853228, 25.441797 17.935587, 25.262161 17.582359, 24.337025 18.146772, 23.591524" fill="rgb(121.28515944764514,121.28515944764514,121.28515944764514)"/>
  <polyline points="19.914190, 24.849398 19.860129, 24.240621 20.287904, 23.839708 20.875391, 23.948554 21.180201, 24.485196 20.972806, 25.045531 20.409378, 25.207617 19.914190, 24.849398" fill="rgb(149,88,178)"/>
  <polyline points="22.806222, 23.983464 23.034964, 24.322513 22.950331, 24.775292 22.601900, 25.076567 22.193778, 25.049857 21.965036, 24.710808 22.049669, 24.258029 22.398100, 23.956754 22.806222, 23.983464" fill="rgb(149,88,178)"/>
  <polyline points="24.299309, 23.846276 25.189163, 24.395223 24.700691, 25.187045 23.810837, 24.638098 24.299309, 23.846276" fill="rgb(149,88,178)"/>
  <polyline points="26.861520, 23.592389 27.178811, 24.452859 26.558008, 25.401501 25.857040, 25.127324 26.044620, 24.009231 26.861520, 23.592389" fill="rgb(149,88,178)"/>
  <polyline points="28.415411, 25.387877 27.988711, 25.015333 27.947022, 24.267279 28.321737, 23.707014 28.830687, 23.756429 29.090623, 24.378314 28.905808, 25.104377 28.415411, 25.387877" fill="rgb(149,88,178)"/>
  <polyline points="30.501317, 23.744286 31.263407, 24.634022 30.498683, 25.289035 29.736593, 24.399299 30.501317, 23.744286" fill="rgb(149,88,178)"/>
  <polyline points="33.330561, 24.622321 32.462712, 25.353085 31.669439, 24.411000 32.537288, 23.680236 33.330561, 24.622321" fill="rgb(118.08028836776377,118.08028836776377,118.08028836776377)"/>
  <polyline points="33.835129, 24.642352 34.046792, 23.940654 34.711663, 23.814963 35.164871, 24.390969 34.953208, 25.092667 34.288337, 25.218358 33.835129, 24.642352" fill="rgb(57.02606556201931,57.02606556201931,57.02606556201931)"/>
  <polyline points="1.915132, 25.607688 2.200771, 26.135244 1.958715, 26.748244 1.371237, 26.985085 0.880720, 26.667422 0.856534, 26.034461 1.316890, 25.562835 1.915132, 25.607688" fill="rgb(53.44659201533962,53.44659201533962,53.44659201533962)"/>
  <polyline points="3.029564, 26.946954 2.954903, 25.607055 3.970436, 25.550469 4.045097, 26.890367 3.029564, 26.946954" fill="rgb(107.08926678535221,107.08926678535221,107.08926678535221)"/>
  <polyline points="5.408661, 26.873949 5.268390, 26.833395 5.142671, 26.756103 5.039405, 26.646930 4.965079, 26.512735 4.924365, 26.361951 4.919820, 26.204051 4.951729, 26.048958 5.018089, 25.906416 5.114729, 25.785382 5.235577, 25.693460 5.373039, 25.636427 5.518479, 25.617866 5.662758, 25.638943 5.796810, 25.698334 5.912213, 25.792308 6.001714, 25.914958 6.059691, 26.058580 6.082501, 26.214149 6.068710, 26.371889 6.019185, 26.521890 5.937037, 26.654725 5.827429, 26.762050 5.697247, 26.837119 5.554672, 26.875217 5.408661, 26.873949" fill="rgb(203,60,51)"/>
  <polyline points="6.589336, 25.907032 6.671222, 25.775772 6.805184, 25.674228 6.982803, 25.608780 7.192920, 25.583543 7.422332, 25.600100 7.656624, 25.657411 7.881074, 25.751877 8.081581, 25.877560 8.245544, 26.026564 8.362663, 26.189526 8.425577, 26.356207 8.430333, 26.516134 8.376634, 26.659258 8.267852, 26.776585 8.110823, 26.860745 7.915414, 26.906448 7.693903, 26.910823 7.460209, 26.873595 7.229014, 26.797103 7.014847, 26.686154 6.831163, 26.547719 6.689506, 26.390496 6.598774, 26.224364 6.564670, 26.059762 6.589336, 25.907032" fill="rgb(203,60,51)"/>
  <polyline points="8.913078, 26.124381 9.382717, 25.354868 9.969639, 25.479198 10.086922, 26.373041 9.617283, 27.142555 9.030361, 27.018225 8.913078, 26.124381" fill="rgb(203,60,51)"/>
  <polyline points="11.062098, 26.935772 10.914013, 26.173789 11.575742, 25.515346 12.132798, 25.870389 11.815348, 26.748260 11.062098, 26.935772" fill="rgb(203,60,51)"/>
  <polyline points="13.972970, 25.567737 14.103908, 25.690395 14.196901, 25.848134 14.246105, 26.031042 14.248429, 26.227628 14.203725, 26.425538 14.114805, 26.612338 13.987253, 26.776289 13.829086, 26.907091 13.650241, 26.996525 13.461956, 27.038971 13.276062, 27.031761 13.104238, 26.975350 12.957281, 26.873282 12.844426, 26.731969 12.772762, 26.560292 12.746794, 26.369036 12.768152, 26.170221 12.835495, 25.976337 12.944591, 25.799567 13.088586, 25.651019 13.258431, 25.540026 13.443455, 25.473563 13.632032, 25.455804 13.812313, 25.487867 13.972970, 25.567737" fill="rgb(203,60,51)"/>
  <polyline points="15.726254, 25.337155 16.276329, 26.142361 15.753544, 27.094540 14.880370, 26.877813 14.863503, 25.791689 15.726254, 25.337155" fill="rgb(203,60,51)"/>
  <polyline points="16.980758, 25.717612 17.590647, 25.425582 18.147436, 25.615729 18.324966, 26.176669 18.019242, 26.779811 17.409353, 27.071841 16.852564, 26.881693 16.675034, 26.320753 16.980758, 25.717612" fill="rgb(83.47180416114861,83.47180416114861,83.47180416114861)"/>
  <polyline points="20.145022, 26.951563 19.181037, 26.941546 18.657848, 25.974055 19.298484, 25.386130 20.217608, 25.990263 20.145022, 26.951563" fill="rgb(72.72763811709217,72.72763811709217,72.72763811709217)"/>
  <polyline points="21.296535, 25.573709 22.198539, 25.810613 22.135186, 26.652954 21.194027, 26.936646 20.675713, 26.269635 21.296535, 25.573709" fill="rgb(149,88,178)"/>
  <polyline points="23.511505, 27.236760 23.051038, 26.870061 22.928648, 26.035473 23.236498, 25.361458 23.742770, 25.355562 24.066232, 26.022226 23.963309, 26.859438 23.511505, 27.236760" fill="rgb(149,88,178)"/>
  <polyline points="25.022780, 26.019666 25.394468, 25.705847 25.845624, 25.800816 26.036518, 26.233059 25.823403, 26.677089 25.366759, 26.798541 25.010448, 26.505960 25.022780, 26.019666" fill="rgb(149,88,178)"/>
  <polyline points="27.971929, 26.581697 27.337884, 26.979390 26.865955, 26.646405 27.028071, 25.915726 27.662116, 25.518032 28.134045, 25.851018 27.971929, 26.581697" fill="rgb(149,88,178)"/>
  <polyline points="28.923598, 25.743962 29.858902, 25.571806 30.076402, 26.753461 29.141098, 26.925617 28.923598, 25.743962" fill="rgb(149,88,178)"/>
  <polyline points="30.961414, 26.432575 30.929110, 25.674715 31.326697, 25.349085 31.854786, 25.700893 32.115713, 26.465219 31.912996, 27.066510 31.399284, 27.051982 30.961414, 26.432575" fill="rgb(47.20698894773273,47.20698894773273,47.20698894773273)"/>
  <polyline points="34.108254, 26.562529 33.371766, 26.958547 32.812493, 26.373596 33.203331, 25.616058 34.004156, 25.732826 34.108254, 26.562529" fill="rgb(20.80873968913094,20.80873968913094,20.80873968913094)"/>
  <polyline points="3.105175, 28.198501 2.799269, 28.492305 2.318055, 28.486453 1.943422, 28.184375 1.894825, 27.763023 2.200731, 27.469219 2.681945, 27.475071 3.056578, 27.777149 3.105175, 28.198501" fill="rgb(49.284554887293865,49.284554887293865,49.284554887293865)"/>
  <polyline points="4.995229, 28.331998 4.247157, 28.862007 3.751928, 28.510772 4.004771, 27.629527 4.752843, 27.099517 5.248072, 27.450753 4.995229, 28.331998" fill="rgb(118.66546841887873,118.66546841887873,118.66546841887873)"/>
  <polyline points="6.882475, 28.745187 6.409399, 28.701942 5.989396, 28.236240 5.868498, 27.620882 6.117525, 27.216337 6.590601, 27.259582 7.010604, 27.725285 7.131502, 28.340642 6.882475, 28.745187" fill="rgb(203,60,51)"/>
  <polyline points="7.711943, 27.889549 7.989539, 27.512101 8.566156, 27.409188 9.104020, 27.641096 9.288057, 28.071975 9.010461, 28.449423 8.433844, 28.552336 7.895980, 28.320428 7.711943, 27.889549" fill="rgb(203,60,51)"/>
  <polyline points="9.792175, 27.467294 10.351489, 27.256976 11.022634, 27.591683 11.300226, 28.219375 10.975231, 28.667387 10.292377, 28.598356 9.765868, 28.064264 9.792175, 27.467294" fill="rgb(203,60,51)"/>
  <polyline points="12.018178, 28.192527 11.957484, 28.013337 11.930879, 27.832101 11.940033, 27.660206 11.984372, 27.508452 12.061110, 27.386376 12.165425, 27.301646 12.290762, 27.259589 12.429247, 27.262845 12.572177, 27.311210 12.710573, 27.401646 12.835737, 27.528470 12.939805, 27.683713 13.016239, 27.857621 13.060236, 28.039266 13.069031, 28.217235 13.042072, 28.380346 12.981052, 28.518349 12.889806, 28.622574 12.774068, 28.686472 12.641108, 28.706027 12.499282, 28.680011 12.357501, 28.610058 12.224674, 28.500565 12.109147, 28.358410 12.018178, 28.192527" fill="rgb(203,60,51)"/>
  <polyline points="14.697004, 28.631363 14.075385, 28.464464 13.878381, 27.813863 14.302996, 27.330161 14.924615, 27.497060 15.121619, 28.147661 14.697004, 28.631363" fill="rgb(57.212963168422796,57.212963168422796,57.212963168422796)"/>
  <polyline points="16.746345, 28.448932 15.975645, 28.441399 15.929586, 27.797281 16.671820, 27.406728 17.176604, 27.809471 16.746345, 28.448932" fill="rgb(101.54059355274651,101.54059355274651,101.54059355274651)"/>
  <polyline points="18.084260, 27.475510 18.726684, 27.370570 19.142424, 27.875822 18.915740, 28.486014 18.273316, 28.590955 17.857576, 28.085703 18.084260, 27.475510" fill="rgb(36.44491056720336,36.44491056720336,36.44491056720336)"/>
  <polyline points="21.369232, 28.114598 21.016795, 28.710877 20.361626, 28.879464 19.787515, 28.521604 19.630768, 27.846926 19.983205, 27.250647 20.638374, 27.082060 21.212485, 27.439920 21.369232, 28.114598" fill="rgb(24.371203024483748,24.371203024483748,24.371203024483748)"/>
  <polyline points="22.456605, 28.938003 21.632057, 28.237827 22.006977, 27.182396 23.063238, 27.230280 23.341124, 28.315305 22.456605, 28.938003" fill="rgb(149,88,178)"/>
  <polyline points="24.429272, 28.956585 23.812775, 28.624588 23.598845, 27.915446 23.912799, 27.244566 24.570728, 27.004939 25.187225, 27.336937 25.401155, 28.046078 25.087201, 28.716959 24.429272, 28.956585" fill="rgb(149,88,178)"/>
  <polyline points="25.911059, 28.357773 25.810115, 28.159338 25.752520, 27.949682 25.741892, 27.741979 25.778898, 27.549280 25.861214, 27.383692 25.983667, 27.255621 26.138563, 27.173112 26.316170, 27.141352 26.505327, 27.162334 26.694150, 27.234742 26.870773, 27.354024 27.024100, 27.512687 27.144495, 27.700761 27.224394, 27.906428 27.258777, 28.116766 27.245484, 28.318559 27.185348, 28.499126 27.082150, 28.647122 26.942373, 28.753249 26.774801, 28.810838 26.589961, 28.816269 26.399469, 28.769203 26.215294, 28.672596 26.049007, 28.532519 25.911059, 28.357773" fill="rgb(149,88,178)"/>
  <polyline points="28.445616, 28.628051 27.872180, 28.129449 28.166370, 27.425367 28.921625, 27.488822 29.094209, 28.232122 28.445616, 28.628051" fill="rgb(149,88,178)"/>
  <polyline points="29.876162, 28.087527 29.873011, 27.951241 29.909256, 27.816810 29.982619, 27.692681 30.088492, 27.586652 30.220220, 27.505388 30.369529, 27.453992 30.527035, 27.435696 30.682843, 27.451648 30.827162, 27.500846 30.950924, 27.580199 31.046353, 27.684721 31.107453, 27.807845 31.130384, 27.941833 31.113706, 28.078267 31.058466, 28.208575 30.968136, 28.324569 30.848391, 28.418960 30.706756, 28.485817 30.552129, 28.520940 30.394227, 28.522121 30.242971, 28.489287 30.107865, 28.424500 29.997398, 28.331832 29.918512, 28.217105 29.876162, 28.087527" fill="rgb(28.185033339699125,28.185033339699125,28.185033339699125)"/>
  <polyline points="33.397895, 27.639501 33.162975, 28.373262 32.265080, 28.714523 31.602105, 28.322023 31.837025, 27.588262 32.734920, 27.247001 33.397895, 27.639501" fill="rgb(92.57623177421169,92.57623177421169,92.57623177421169)"/>
  <polyline points="35.496458, 28.064146 35.454588, 28.187771 35.352738, 28.298388 35.197307, 28.389047 34.998062, 28.454053 34.767522, 28.489320 34.520173, 28.492632 34.271555, 28.463782 34.037292, 28.404581 33.832103, 28.318751 33.668880, 28.211684 33.557879, 28.090107 33.506075, 27.961659 33.516724, 27.834412 33.589155, 27.716360 33.718817, 27.614922 33.897565, 27.536471 34.114165, 27.485936 34.355009, 27.466493 34.604964, 27.479364 34.848323, 27.523739 35.069795, 27.596831 35.255466, 27.694046 35.393667, 27.809277 35.475717, 27.935283 35.496458, 28.064146" fill="rgb(86.2196663530885,86.2196663530885,86.2196663530885)"/>
  <polyline points="2.259133, 29.782162 1.761470, 30.428862 0.740867, 29.643464 1.238530, 28.996764 2.259133, 29.782162" fill="rgb(118.88377235497482,118.88377235497482,118.88377235497482)"/>
  <polyline points="2.776297, 30.269677 2.744696, 29.790033 3.155541, 29.265154 3.768166, 29.002507 4.223703, 29.155948 4.255304, 29.635593 3.844459, 30.160472 3.231834, 30.423119 2.776297, 30.269677" fill="rgb(48.137912090393456,48.137912090393456,48.137912090393456)"/>
  <polyline points="5.502911, 29.145645 6.087069, 29.432235 6.084158, 29.999403 5.497089, 30.279981 4.912931, 29.993391 4.915842, 29.426223 5.502911, 29.145645" fill="rgb(86.98226015900434,86.98226015900434,86.98226015900434)"/>
  <polyline points="7.623206, 29.018847 8.200609, 29.789723 7.376794, 30.406779 6.799391, 29.635903 7.623206, 29.018847" fill="rgb(23.30956638723647,23.30956638723647,23.30956638723647)"/>
  <polyline points="8.835402, 29.545207 9.154554, 29.100641 9.676064, 29.014677 10.094438, 29.337671 10.164598, 29.880419 9.845446, 30.324985 9.323936, 30.410949 8.905562, 30.087955 8.835402, 29.545207" fill="rgb(80.79719366817007,80.79719366817007,80.79719366817007)"/>
  <polyline points="11.598805, 30.516625 10.933113, 30.359464 10.599495, 29.823504 10.793381, 29.222703 11.401195, 28.909001 12.066887, 29.066162 12.400505, 29.602122 12.206619, 30.202923 11.598805, 30.516625" fill="rgb(52.97470548555473,52.97470548555473,52.97470548555473)"/>
  <polyline points="13.577102, 30.471076 13.105094, 30.294685 12.864416, 29.777441 12.996055, 29.222339 13.422898, 28.954550 13.894906, 29.130941 14.135584, 29.648185 14.003945, 30.203287 13.577102, 30.471076" fill="rgb(22.859349733726283,22.859349733726283,22.859349733726283)"/>
  <polyline points="15.596141, 28.933873 15.735806, 28.975956 15.860655, 29.064338 15.962842, 29.193467 16.035947, 29.355227 16.075377, 29.539457 16.078654, 29.734578 16.045572, 29.928332 15.978209, 30.108545 15.880799, 30.263892 15.759462, 30.384612 15.621822, 30.463121 15.476527, 30.494486 15.332707, 30.476735 15.199399, 30.410984 15.084979, 30.301364 14.996636, 30.154764 14.939921, 29.980394 14.918398, 29.789211 14.933420, 29.593227 14.984041, 29.404758 15.067082, 29.235645 15.177325, 29.096514 15.307843, 28.996108 15.450435, 28.940734 15.596141, 28.933873" fill="rgb(68.99878180338284,68.99878180338284,68.99878180338284)"/>
  <polyline points="17.006543, 29.350682 17.543179, 28.922445 18.054521, 28.957195 18.241033, 29.434576 17.993457, 30.074944 17.456821, 30.503181 16.945479, 30.468430 16.758967, 29.991050 17.006543, 29.350682" fill="rgb(67.75024132263232,67.75024132263232,67.75024132263232)"/>
  <polyline points="18.731885, 30.289187 18.815922, 29.601172 19.584038, 29.024799 20.268115, 29.136439 20.184078, 29.824453 19.415962, 30.400827 18.731885, 30.289187" fill="rgb(74.45231518833482,74.45231518833482,74.45231518833482)"/>
  <polyline points="21.813846, 29.130403 22.244794, 29.738397 21.930948, 30.320807 21.186154, 30.295223 20.755206, 29.687229 21.069052, 29.104819 21.813846, 29.130403" fill="rgb(96.10165827228948,96.10165827228948,96.10165827228948)"/>
  <polyline points="22.974538, 29.255562 23.662029, 28.865028 24.227509, 29.112894 24.245160, 29.812511 23.701690, 30.437053 23.006343, 30.516228 22.682730, 29.990415 22.974538, 29.255562" fill="rgb(45.53004999100805,45.53004999100805,45.53004999100805)"/>
  <polyline points="25.544605, 30.617080 25.314051, 30.599974 25.095182, 30.527125 24.901748, 30.403109 24.745905, 30.235720 24.637444, 30.035474 24.583181, 29.814954 24.586525, 29.588017 24.647266, 29.368921 24.761588, 29.171433 24.922306, 29.007961 25.119324, 28.888779 25.340260, 28.821373 25.571234, 28.809980 25.797731, 28.855315 26.005521, 28.954530 26.181548, 29.101390 26.314750, 29.286669 26.396758, 29.498723 26.422420, 29.724230 26.390123, 29.949020 26.301896, 30.158967 26.163283, 30.340881 25.982994, 30.483332 25.772356, 30.577367 25.544605, 30.617080" fill="rgb(26.57771426111889,26.57771426111889,26.57771426111889)"/>
  <polyline points="26.754162, 30.149781 27.023079, 29.427201 27.951084, 29.099327 28.255706, 29.619270 27.515968, 30.268486 26.754162, 30.149781" fill="rgb(65.7115327299614,65.7115327299614,65.7115327299614)"/>
  <polyline points="30.070791, 29.988318 29.443576, 30.280279 28.894337, 29.788021 29.182104, 29.191828 29.909192, 29.315618 30.070791, 29.988318" fill="rgb(24.434721899119044,24.434721899119044,24.434721899119044)"/>
  <polyline points="31.601132, 28.750174 31.754454, 28.796859 31.891788, 28.901096 32.004504, 29.056336 32.085521, 29.252826 32.129747, 29.478217 32.134404, 29.718350 32.099199, 29.958134 32.026344, 30.182504 31.920416, 30.377362 31.788073, 30.530464 31.637629, 30.632189 31.478537, 30.676147 31.320794, 30.659575 31.174311, 30.583514 31.048292, 30.452744 30.950656, 30.275482 30.887537, 30.062865 30.862901, 29.828252 30.878297, 29.586387 30.932756, 29.352465 31.022858, 29.141185 31.142940, 28.965823 31.285457, 28.837397 31.441455, 28.763976 31.601132, 28.750174" fill="rgb(69.74299150680964,69.74299150680964,69.74299150680964)"/>
  <polyline points="32.856641, 29.468012 33.340163, 28.926048 33.944046, 28.976535 34.213553, 29.581454 33.945740, 30.285289 33.342276, 30.558038 32.857581, 30.194315 32.856641, 29.468012" fill="rgb(1.934455848012444,1.934455848012444,1.934455848012444)"/>
</svg>
